<svg version="1.1" xmlns="http://www.w3.org/2000/svg" xmlns:xlink="http://www.w3.org/1999/xlink" width="576.33979" height="488.91643" viewBox="0,0,576.33979,488.91643"><g transform="translate(39.03435,69.48658)"><g data-paper-data="{&quot;isPaintingLayer&quot;:true}" fill-rule="nonzero" stroke-linecap="butt" stroke-linejoin="miter" stroke-miterlimit="10" stroke-dasharray="" stroke-dashoffset="0" style="mix-blend-mode: normal"><path d="M-10.87949,367.6474v-375.29478h501.759v375.29479z" fill="#bb99ff" stroke="none" stroke-width="0"/><path d="M65.84864,-9.03241c1.83111,0.03998 4.11046,-0.17745 5.90062,-0.56472c10.01416,-2.16639 20.02516,-4.3474 30.03465,-6.53543l-121.89326,274.21394c-4.85956,-22.61533 -9.88577,-45.1812 -15.75565,-67.49455l88.85926,-199.89987c4.2848,0.09364 8.56959,0.18708 12.85438,0.28064z" fill="#d4bfff" stroke="#d4bfff" stroke-width="6"/><path d="M20.99298,395.51393l-12.18805,-5.41782c-1.31026,-15.44715 -2.95644,-30.83154 -6.64332,-45.84569c-0.49261,-2.00608 -0.97977,-4.0138 -1.46194,-6.02302l162.59985,-365.78844c16.86849,-3.68514 33.74166,-7.34849 50.62736,-10.95367z" fill="#d4bfff" stroke="#d4bfff" stroke-width="6"/><path d="M72.18622,415.44381l208.26216,-468.51145c1.22619,-0.24141 2.45238,-0.48283 3.67857,-0.72426l35.40558,15.73845l-197.44158,444.1692c-15.94542,3.59347 -32.01167,6.85901 -47.98773,10.18021z" fill="#d4bfff" stroke="#d4bfff" stroke-width="6"/><path d="M386.63777,-64.88112l38.20839,16.98434l-188.39022,423.80706c-2.25374,0.53106 -4.41935,1.06446 -6.47064,1.59896c-15.36218,4.00295 -30.54071,8.49498 -45.74168,12.92027z" fill="#ff9494" stroke="#d4bfff" stroke-width="6"/><path d="M386.63777,-65.52663l38.20839,16.98434l-188.39022,423.80706c-2.25374,0.53106 -4.41935,1.06446 -6.47064,1.59896c-15.36218,4.00295 -30.54071,8.49498 -45.74168,12.92027z" fill="#d4bfff" stroke="#d4bfff" stroke-width="6"/><path d="M487.29364,29.64224c0.401,2.07473 0.82386,4.14932 1.26861,6.22257l-143.94989,332.09245c-19.7295,2.61302 -26.52676,4.86953 -50.17239,9.93017l180.28732,-413.83799c4.14941,21.87178 8.34178,43.73543 12.56635,65.5928z" fill="#d4bfff" stroke="#d4bfff" stroke-width="6"/><path d="M516.16856,113.03352c0.60876,0.95937 2.17628,1.17818 2.56383,2.24626c4.93465,13.59953 10.20322,27.09321 15.34075,40.62979l-93.21655,219.84011c-1.22467,0.01245 -2.43619,0.00048 -3.63167,-0.03898c-8.79426,-0.29023 -23.39569,-1.90287 -32.32763,-2.25146c-2.76523,-0.10792 -5.72218,-0.07777 -8.80556,0.0557l115.61185,-270.2211c1.41346,3.29017 2.55107,6.72346 4.46499,9.73968z" fill="#d4bfff" stroke="#d4bfff" stroke-width="6"/></g></g></svg>