<svg version="1.1" xmlns="http://www.w3.org/2000/svg" xmlns:xlink="http://www.w3.org/1999/xlink" width="39.39998" height="39.39998" viewBox="0,0,39.39998,39.39998"><g transform="translate(-220.30001,-160.30005)"><g data-paper-data="{&quot;isPaintingLayer&quot;:true}" fill-rule="nonzero" stroke-linejoin="miter" stroke-miterlimit="10" stroke-dasharray="" stroke-dashoffset="0" style="mix-blend-mode: normal"><path d="M224.15003,180.00004c0,-8.75372 7.09629,-15.85001 15.85001,-15.85001c8.75372,0 15.85001,7.09629 15.85001,15.85001c0,8.75372 -7.09629,15.85001 -15.85001,15.85001c-8.75372,0 -15.85001,-7.09629 -15.85001,-15.85001z" fill="#ffffff" stroke="none" stroke-width="0" stroke-linecap="butt"/><path d="M221.30001,180.00004c0,-10.32772 8.37227,-18.69999 18.69999,-18.69999c10.32772,0 18.69999,8.37227 18.69999,18.69999c0,10.32772 -8.37227,18.69999 -18.69999,18.69999c-10.32772,0 -18.69999,-8.37227 -18.69999,-18.69999z" fill="none" stroke="#ffffff" stroke-width="2" stroke-linecap="butt"/><path d="M230.59028,186.10165v-12.20324h18.81954v12.20324z" fill="#636363" stroke="none" stroke-width="0" stroke-linecap="butt"/><path d="M230.67319,174.33704h18.73663" fill="none" stroke="#000000" stroke-width="2.5" stroke-linecap="round"/></g></g></svg>