<svg version="1.1" xmlns="http://www.w3.org/2000/svg" xmlns:xlink="http://www.w3.org/1999/xlink" width="65" height="63" viewBox="0,0,65,63"><defs><radialGradient cx="56.84744" cy="33.16086" r="26.37784" gradientUnits="userSpaceOnUse" id="color-1"><stop offset="0" stop-color="#ffffff"/><stop offset="1" stop-color="#ffffff" stop-opacity="0"/></radialGradient><linearGradient x1="44.7873" y1="31.66668" x2="69.87941" y2="31.66668" gradientUnits="userSpaceOnUse" id="color-2"><stop offset="0" stop-color="#ffd854"/><stop offset="1" stop-color="#fbff00"/></linearGradient></defs><g transform="translate(-21.5,-2.33335)"><g data-paper-data="{&quot;isPaintingLayer&quot;:true}" fill-rule="nonzero" stroke-linejoin="miter" stroke-miterlimit="10" stroke-dasharray="" stroke-dashoffset="0" style="mix-blend-mode: normal"><path d="M30.95551,31.6667c0,-14.56808 11.80976,-26.37784 26.37784,-26.37784c14.56808,0 26.37784,11.80976 26.37784,26.37784c0,14.56808 -11.80976,26.37784 -26.37784,26.37784c-14.56808,0 -26.37784,-11.80976 -26.37784,-26.37784z" fill="url(#color-1)" stroke="none" stroke-width="1" stroke-linecap="butt"/><path d="M34.24941,53.73815v-44.14293h46.16784v44.14293z" fill="none" stroke="none" stroke-width="0" stroke-linecap="butt"/><path d="M21.5,65.33335v-63h65v63z" fill="none" stroke="none" stroke-width="NaN" stroke-linecap="butt"/><g stroke="#000000" stroke-width="1.65"><path d="M44.7873,31.66668c0,-6.92899 5.61706,-12.54605 12.54606,-12.54605c6.929,0 12.54605,5.61706 12.54605,12.54606c0,6.929 -5.61706,12.54606 -12.54605,12.54606c-6.92899,0 -12.54606,-5.61706 -12.54606,-12.54606z" fill="url(#color-2)" stroke-linecap="butt"/><path d="M54.85418,24.08336v12.12648" fill="none" stroke-linecap="round"/><path d="M59.81252,24.08334v12.12648" fill="none" stroke-linecap="round"/><path d="M51.20834,38.95834c0,0 4.05959,2.04167 6.125,2.04167c2.11401,0 6.41667,-2.04167 6.41667,-2.04167" fill="none" stroke-linecap="round"/><path d="M62.58334,26.70834c0,0 -9.66792,-2.2994 -10.19649,1.67265c-0.38353,2.88214 10.09921,1.15837 10.33497,5.06388c0.13921,2.30615 -10.49265,0.55514 -10.49265,0.55514" fill="none" stroke-linecap="round"/></g></g></g></svg>