<svg version="1.1" xmlns="http://www.w3.org/2000/svg" xmlns:xlink="http://www.w3.org/1999/xlink" width="131.75568" height="131.75568" viewBox="0,0,131.75568,131.75568"><defs><radialGradient cx="238.78648" cy="183.73165" r="65.87784" gradientUnits="userSpaceOnUse" id="color-1"><stop offset="0" stop-color="#ffffff"/><stop offset="1" stop-color="#ffffff" stop-opacity="0"/></radialGradient><linearGradient x1="197.36204" y1="180" x2="282.63796" y2="180" gradientUnits="userSpaceOnUse" id="color-2"><stop offset="0" stop-color="#ffea00"/><stop offset="1" stop-color="#ff8900"/></linearGradient></defs><g transform="translate(-174.12216,-114.12216)"><g data-paper-data="{&quot;isPaintingLayer&quot;:true}" fill-rule="nonzero" stroke-linejoin="miter" stroke-miterlimit="10" stroke-dasharray="" stroke-dashoffset="0" style="mix-blend-mode: normal"><path d="M174.12216,180.00001c0,-36.38334 29.49454,-65.87784 65.87784,-65.87784c36.38334,0 65.87784,29.49454 65.87784,65.87784c0,36.38334 -29.49454,65.87784 -65.87784,65.87784c-36.38334,0 -65.87784,-29.49454 -65.87784,-65.87784z" fill="url(#color-1)" stroke="none" stroke-width="1" stroke-linecap="butt"/><path d="M179.70711,237.6841v-115.36815h120.58581v115.36815z" fill="none" stroke="none" stroke-width="0" stroke-linecap="butt"/><g><path d="M197.36204,202.07542v-44.15084h85.27593v44.15084z" fill="url(#color-2)" stroke="#4b4b4b" stroke-width="4.5" stroke-linecap="butt"/><path d="M262.70487,192.65014c0,0 -6.2725,2.97639 -9.35435,2.97639c-3.01099,0 -8.92914,-2.97639 -8.92914,-2.97639" fill="none" stroke="#000000" stroke-width="1.65" stroke-linecap="round"/><text transform="translate(216.21748,188.4098) scale(1.26448,0.72891)" font-size="40" xml:space="preserve" fill="#000000" fill-rule="nonzero" stroke="none" stroke-width="1" stroke-linecap="butt" stroke-linejoin="miter" stroke-miterlimit="10" stroke-dasharray="" stroke-dashoffset="0" font-family="&quot;Bernard MT&quot;, Sans Serif" font-weight="normal" text-anchor="start" style="mix-blend-mode: normal"><tspan x="0" dy="0">5$</tspan></text></g></g></g></svg>