<svg version="1.1" xmlns="http://www.w3.org/2000/svg" xmlns:xlink="http://www.w3.org/1999/xlink" width="55.03256" height="38.47524" viewBox="0,0,55.03256,38.47524"><defs><linearGradient x1="251.23037" y1="191.91038" x2="251.23037" y2="182.8564" gradientUnits="userSpaceOnUse" id="color-1"><stop offset="0" stop-color="#ffcc00"/><stop offset="1" stop-color="#dbaf02"/></linearGradient><linearGradient x1="251.23037" y1="191.91038" x2="251.23037" y2="182.8564" gradientUnits="userSpaceOnUse" id="color-2"><stop offset="0" stop-color="#ffcc00"/><stop offset="1" stop-color="#dbaf02"/></linearGradient></defs><g transform="translate(-216.29108,-160.45433)"><g data-paper-data="{&quot;isPaintingLayer&quot;:true}" fill-rule="nonzero" stroke="none" stroke-linecap="butt" stroke-linejoin="miter" stroke-miterlimit="10" stroke-dasharray="" stroke-dashoffset="0" style="mix-blend-mode: normal"><g><path d="M229.9187,165.37527h0.13931c2.60011,-0.04642 4.91004,0.77771 6.92978,2.47242l0.03481,0.03481l2.08938,2.29831l0.31341,0.38305c0.69646,0.97505 1.26524,2.03133 1.70633,3.16887h15.53107c1.64829,-0.1625 3.08762,0.58038 4.31805,2.22868c0.88219,1.11434 1.32328,2.43761 1.32328,3.96983l-0.06964,0.97503v0.13931c-0.16251,0.99826 -0.53395,1.88046 -1.11434,2.64656l-0.24376,0.38306l-0.87057,0.87057v4.80558c0,1.57863 -0.4527,2.751 -1.3581,3.51712c-0.76611,0.90541 -1.95008,1.34649 -3.55194,1.32326l-0.10447,0.03484h-1.46255c-0.74289,-0.04643 -1.43936,-0.30179 -2.08938,-0.7661l-0.20892,-0.13931l-0.03482,-0.03481l-0.1393,0.1393c-0.6036,0.51073 -1.35808,0.77771 -2.2635,0.80094h-0.13931h-1.46255c-3.1805,-0.06965 -4.77076,-1.70631 -4.77075,-4.91005v-3.6216l-1.2188,0.03482c-0.48753,1.18399 -1.11434,2.32154 -1.88045,3.41266l-0.41788,0.4875c-2.36796,3.15729 -5.30472,4.67789 -8.81021,4.56181l-0.10447,0.03484l-0.10447,-0.03484c-3.6448,0.11608 -6.73245,-1.53222 -9.26291,-4.94486l0.03481,-0.03481c-1.78757,-2.43761 -2.7394,-5.3163 -2.85549,-8.6361l-0.10447,-0.94021c0,-3.57518 0.89379,-6.62797 2.68138,-9.15843c0.16251,-0.39465 0.34823,-0.65004 0.55718,-0.76611l0.03481,-0.03481c0.65004,-0.88218 1.36971,-1.62506 2.15903,-2.22867l-0.13928,0.06965c2.01974,-1.74114 4.32966,-2.58852 6.92978,-2.54209M257.0458,183.1698v-0.06963c0.60361,-0.09286 1.12594,-0.40628 1.56703,-0.94021v-0.06962c0.37145,-0.41788 0.60361,-0.92862 0.69646,-1.53222l0.03482,-0.66164c0,-0.83575 -0.24375,-1.56704 -0.7313,-2.19384c-0.55716,-0.74289 -1.20719,-1.09111 -1.95007,-1.04469l-17.72489,0.03481c-0.34824,-1.64829 -0.98666,-3.12247 -1.91528,-4.42252l-0.1393,-0.1393l-1.8108,-2.01973c-1.48577,-1.25363 -3.1805,-1.85722 -5.08417,-1.8108c-1.90366,-0.04641 -3.58676,0.56878 -5.04933,1.84563c-0.67325,0.53394 -1.30006,1.20718 -1.88043,2.01973l-0.06965,0.06965c-1.55543,2.15901 -2.33314,4.74753 -2.33314,7.76551l0.06965,0.62681c0.06965,2.80907 0.83576,5.22344 2.29831,7.24318c1.90366,2.60012 4.22519,3.85375 6.96459,3.76089c2.7394,0.09286 5.02612,-1.17238 6.86013,-3.79569h0.06963c0.99827,-1.41613 1.69473,-2.97155 2.08937,-4.66628l6.37261,-0.03481v6.54673c0,1.30005 0.65004,1.95007 1.95007,1.95007h1.46255l0.45271,-0.17412l0.20895,-0.41788v-0.97505h3.55192v0.97505l0.13928,0.41788l0.52234,0.17412h1.46256c1.27683,0.02321 1.91527,-0.61523 1.91527,-1.91527v-6.54673M232.84384,180.62773c-0.11606,1.32326 -0.51075,2.46081 -1.18399,3.41267l-0.10448,0.17411c-0.44109,0.58039 -0.96344,0.89381 -1.56704,0.94021c-0.6036,-0.04644 -1.14917,-0.35983 -1.63668,-0.94023l-0.03481,-0.17412c-0.69646,-0.97505 -1.0795,-2.10098 -1.14915,-3.37783l-0.03482,-0.66164c0,-1.62506 0.39467,-2.99479 1.18398,-4.10912c0.4643,-0.65002 1.02148,-1.02148 1.6715,-1.11434c0.65002,0.09286 1.2072,0.46431 1.6715,1.11434c0.7429,1.11434 1.13757,2.43761 1.18399,3.96982v0.13931v0.62682" fill="#b1900b" stroke-width="1"/><path d="M229.9187,165.37527h0.13931c2.60011,-0.04642 4.91004,0.77771 6.92978,2.47242l0.03481,0.03481l2.08938,2.29831l0.31341,0.38305c0.69646,0.97505 1.26524,2.03133 1.70633,3.16887h15.53107c1.64829,-0.1625 3.08762,0.58038 4.31805,2.22868c0.88219,1.11434 1.32328,2.43761 1.32328,3.96983l-0.06964,0.97503v0.13931c-0.16251,0.99826 -0.53395,1.88046 -1.11434,2.64656l-0.24376,0.38306l-0.87057,0.87057v4.80558c0,1.57863 -0.4527,2.751 -1.3581,3.51712c-0.76611,0.90541 -1.95008,1.34649 -3.55194,1.32326l-0.10447,0.03484h-1.46255c-0.74289,-0.04643 -1.43936,-0.30179 -2.08938,-0.7661l-0.20892,-0.13931l-0.03482,-0.03481l-0.1393,0.1393c-0.6036,0.51073 -1.35808,0.77771 -2.2635,0.80094h-0.13931h-1.46255c-3.1805,-0.06965 -4.77076,-1.70631 -4.77075,-4.91005v-3.6216l-1.2188,0.03482c-0.48753,1.18399 -1.11434,2.32154 -1.88045,3.41266l-0.41788,0.4875c-2.36796,3.15729 -5.30472,4.67789 -8.81021,4.56181l-0.10447,0.03484l-0.10447,-0.03484c-3.6448,0.11608 -6.73245,-1.53222 -9.26291,-4.94486l0.03481,-0.03481c-1.78757,-2.43761 -2.7394,-5.3163 -2.85549,-8.6361l-0.10447,-0.94021c0,-3.57518 0.89379,-6.62797 2.68138,-9.15843c0.16251,-0.39465 0.34823,-0.65004 0.55718,-0.76611l0.03481,-0.03481c0.65004,-0.88218 1.36971,-1.62506 2.15903,-2.22867l-0.13928,0.06965c2.01974,-1.74114 4.32966,-2.58852 6.92978,-2.54209M257.0458,183.1698v-0.06963c0.60361,-0.09286 1.12594,-0.40628 1.56703,-0.94021v-0.06962c0.37145,-0.41788 0.60361,-0.92862 0.69646,-1.53222l0.03482,-0.66164c0,-0.83575 -0.24375,-1.56704 -0.7313,-2.19384c-0.55716,-0.74289 -1.20719,-1.09111 -1.95007,-1.04469l-17.72489,0.03481c-0.34824,-1.64829 -0.98666,-3.12247 -1.91528,-4.42252l-0.1393,-0.1393l-1.8108,-2.01973c-1.48577,-1.25363 -3.1805,-1.85722 -5.08417,-1.8108c-1.90366,-0.04641 -3.58676,0.56878 -5.04933,1.84563c-0.67325,0.53394 -1.30006,1.20718 -1.88043,2.01973l-0.06965,0.06965c-1.55543,2.15901 -2.33314,4.74753 -2.33314,7.76551l0.06965,0.62681c0.06965,2.80907 0.83576,5.22344 2.29831,7.24318c1.90366,2.60012 4.22519,3.85375 6.96459,3.76089c2.7394,0.09286 5.02612,-1.17238 6.86013,-3.79569h0.06963c0.99827,-1.41613 1.69473,-2.97155 2.08937,-4.66628l6.37261,-0.03481v6.54673c0,1.30005 0.65004,1.95007 1.95007,1.95007h1.46255l0.45271,-0.17412l0.20895,-0.41788v-0.97505h3.55192v0.97505l0.13928,0.41788l0.52234,0.17412h1.46256c1.27683,0.02321 1.91527,-0.61523 1.91527,-1.91527v-6.54673M232.84384,180.62773c-0.11606,1.32326 -0.51075,2.46081 -1.18399,3.41267l-0.10448,0.17411c-0.44109,0.58039 -0.96344,0.89381 -1.56704,0.94021c-0.6036,-0.04644 -1.14917,-0.35983 -1.63668,-0.94023l-0.03481,-0.17412c-0.69646,-0.97505 -1.0795,-2.10098 -1.14915,-3.37783l-0.03482,-0.66164c0,-1.62506 0.39467,-2.99479 1.18398,-4.10912c0.4643,-0.65002 1.02148,-1.02148 1.6715,-1.11434c0.65002,0.09286 1.2072,0.46431 1.6715,1.11434c0.7429,1.11434 1.13757,2.43761 1.18399,3.96982v0.13931v0.62682" fill="#b1900b" stroke-width="1"/><path d="M232.84384,180.62773v-0.62682v-0.13931c-0.04642,-1.53222 -0.44109,-2.85548 -1.18399,-3.96982c-0.4643,-0.65002 -1.02148,-1.02148 -1.6715,-1.11434c-0.65002,0.09286 -1.20719,0.46431 -1.67149,1.11434c-0.78931,1.11434 -1.18399,2.48403 -1.18399,4.10912l0.03482,0.66164c0.06965,1.27685 0.45271,2.40278 1.14916,3.37783l0.03481,0.17412c0.4875,0.58039 1.03308,0.89379 1.63669,0.94023c0.6036,-0.04644 1.12593,-0.35986 1.56704,-0.94021l0.10449,-0.17411c0.67324,-0.95182 1.0679,-2.08937 1.18399,-3.41267M245.38011,183.13498l-6.37261,0.03481c-0.39467,1.6947 -1.09113,3.25014 -2.08937,4.66628h-0.06962c-1.83401,2.62335 -4.12072,3.88857 -6.86013,3.79569c-2.7394,0.09286 -5.06094,-1.16078 -6.96458,-3.76089c-1.46257,-2.01973 -2.22866,-4.43412 -2.29831,-7.24318l-0.06965,-0.62681c0,-3.01799 0.77772,-5.6065 2.33314,-7.76552l0.06964,-0.06964c0.58038,-0.81253 1.2072,-1.48579 1.88043,-2.01973c1.46257,-1.27685 3.14567,-1.89204 5.04933,-1.84563c1.90366,-0.04641 3.59838,0.55716 5.08416,1.81079l1.81081,2.01973l0.1393,0.1393c0.92862,1.30005 1.56704,2.77424 1.91528,4.42252l17.72489,-0.03481c0.74289,-0.04643 1.39291,0.30181 1.95007,1.04468c0.4875,0.62681 0.73128,1.35811 0.7313,2.19385l-0.03482,0.66164c-0.09287,0.6036 -0.32501,1.11433 -0.69646,1.53221v0.06963c-0.44109,0.53396 -0.96342,0.84735 -1.56703,0.9402v0.06963l-11.66569,-0.03482" fill="#ffcc00" stroke-width="1"/><path d="M232.84384,180.62773v-0.62682v-0.13931c-0.04642,-1.53222 -0.44109,-2.85548 -1.18399,-3.96982c-0.4643,-0.65002 -1.02148,-1.02148 -1.6715,-1.11434c-0.65002,0.09286 -1.20719,0.46431 -1.67149,1.11434c-0.78931,1.11434 -1.18399,2.48403 -1.18399,4.10912l0.03482,0.66164c0.06965,1.27685 0.45271,2.40278 1.14916,3.37783l0.03481,0.17412c0.4875,0.58039 1.03308,0.89379 1.63669,0.94023c0.6036,-0.04644 1.12593,-0.35986 1.56704,-0.94021l0.10449,-0.17411c0.67324,-0.95182 1.0679,-2.08937 1.18399,-3.41267M245.38011,183.13498l-6.37261,0.03481c-0.39467,1.6947 -1.09113,3.25014 -2.08937,4.66628h-0.06962c-1.83401,2.62335 -4.12072,3.88857 -6.86013,3.79569c-2.7394,0.09286 -5.06094,-1.16078 -6.96458,-3.76089c-1.46257,-2.01973 -2.22866,-4.43412 -2.29831,-7.24318l-0.06965,-0.62681c0,-3.01799 0.77772,-5.6065 2.33314,-7.76552l0.06964,-0.06964c0.58038,-0.81253 1.2072,-1.48579 1.88043,-2.01973c1.46257,-1.27685 3.14567,-1.89204 5.04933,-1.84563c1.90366,-0.04641 3.59838,0.55716 5.08416,1.81079l1.81081,2.01973l0.1393,0.1393c0.92862,1.30005 1.56704,2.77424 1.91528,4.42252l17.72489,-0.03481c0.74289,-0.04643 1.39291,0.30181 1.95007,1.04468c0.4875,0.62681 0.73128,1.35811 0.7313,2.19385l-0.03482,0.66164c-0.09287,0.6036 -0.32501,1.11433 -0.69646,1.53221v0.06963c-0.44109,0.53396 -0.96342,0.84735 -1.56703,0.9402v0.06963l-11.66569,-0.03482" fill="#ffcc00" stroke-width="1"/><path d="M245.38011,183.13498l11.66569,0.03482v6.54672c0,1.30005 -0.63844,1.93848 -1.91527,1.91527h-1.46255l-0.52235,-0.17412l-0.13928,-0.41788v-0.97505h-3.55193v0.97505l-0.20894,0.41788l-0.45271,0.17412h-1.46255c-1.30005,0 -1.95007,-0.65004 -1.95007,-1.95007v-6.54673" fill="url(#color-1)" stroke-width="1"/><path d="M245.38011,183.13498l11.66569,0.03482v6.54672c0,1.30005 -0.63844,1.93848 -1.91527,1.91527h-1.46255l-0.52235,-0.17412l-0.13928,-0.41788v-0.97505h-3.55193v0.97505l-0.20894,0.41788l-0.45271,0.17412h-1.46255c-1.30005,0 -1.95007,-0.65004 -1.95007,-1.95007v-6.54673" fill="url(#color-2)" stroke-width="1"/><path d="M216.29109,198.92957v-38.47524h55.03256v38.47524z" fill="none" stroke-width="0"/></g></g></g></svg>