<svg version="1.1" xmlns="http://www.w3.org/2000/svg" xmlns:xlink="http://www.w3.org/1999/xlink" width="640.08533" height="521.11763" viewBox="0,0,640.08533,521.11763"><g transform="translate(78.54266,69.48658)"><g data-paper-data="{&quot;isPaintingLayer&quot;:true}" fill-rule="nonzero" stroke-miterlimit="10" stroke-dasharray="" stroke-dashoffset="0" style="mix-blend-mode: normal"><path d="M-10.87949,367.6474v-375.29478h501.759v375.29479z" fill="#bb99ff" stroke="none" stroke-width="0" stroke-linecap="butt" stroke-linejoin="miter"/><path d="M65.84865,-9.03241c1.83111,0.03998 4.11046,-0.17745 5.90062,-0.56472c10.01416,-2.16639 20.02516,-4.3474 30.03465,-6.53543l-121.89326,274.21394c-4.85956,-22.61533 -9.88577,-45.1812 -15.75565,-67.49455l88.85926,-199.89987c4.2848,0.09364 8.56959,0.18708 12.85438,0.28064z" fill="#d4bfff" stroke="#d4bfff" stroke-width="6" stroke-linecap="butt" stroke-linejoin="miter"/><path d="M20.99299,395.51393l-12.18805,-5.41782c-1.31026,-15.44715 -2.95644,-30.83154 -6.64332,-45.84569c-0.49261,-2.00608 -0.97977,-4.0138 -1.46194,-6.02302l162.59985,-365.78844c16.86849,-3.68514 33.74166,-7.34849 50.62736,-10.95367z" fill="#d4bfff" stroke="#d4bfff" stroke-width="6" stroke-linecap="butt" stroke-linejoin="miter"/><path d="M72.18623,415.44381l208.26216,-468.51145c1.22619,-0.24141 2.45238,-0.48283 3.67857,-0.72426l35.40558,15.73845l-197.44158,444.1692c-15.94542,3.59347 -32.01167,6.85901 -47.98773,10.18021z" fill="#d4bfff" stroke="#d4bfff" stroke-width="6" stroke-linecap="butt" stroke-linejoin="miter"/><path d="M386.63778,-64.88112l38.20839,16.98434l-188.39022,423.80706c-2.25374,0.53106 -4.41935,1.06446 -6.47064,1.59896c-15.36218,4.00295 -30.54071,8.49498 -45.74168,12.92027z" fill="#ff9494" stroke="#d4bfff" stroke-width="6" stroke-linecap="butt" stroke-linejoin="miter"/><path d="M386.63778,-65.52663l38.20839,16.98434l-188.39022,423.80706c-2.25374,0.53106 -4.41935,1.06446 -6.47064,1.59896c-15.36218,4.00295 -30.54071,8.49498 -45.74168,12.92027z" fill="#d4bfff" stroke="#d4bfff" stroke-width="6" stroke-linecap="butt" stroke-linejoin="miter"/><path d="M487.29365,29.64224c0.401,2.07473 0.82386,4.14932 1.26861,6.22257l-143.94989,332.09245c-19.7295,2.61302 -26.52676,4.86953 -50.17239,9.93017l180.28732,-413.83799c4.14941,21.87178 8.34178,43.73543 12.56635,65.5928z" fill="#d4bfff" stroke="#d4bfff" stroke-width="6" stroke-linecap="butt" stroke-linejoin="miter"/><path d="M516.16856,113.03352c0.60876,0.95937 2.17628,1.17818 2.56383,2.24626c4.93465,13.59953 10.20322,27.09321 15.34075,40.62979l-93.21655,219.84011c-1.22467,0.01245 -2.43619,0.00048 -3.63167,-0.03898c-8.79426,-0.29023 -23.39569,-1.90287 -32.32763,-2.25146c-2.76523,-0.10792 -5.72218,-0.07777 -8.80556,0.0557l115.61185,-270.2211c1.41346,3.29017 2.55107,6.72346 4.46499,9.73968z" fill="#d4bfff" stroke="#d4bfff" stroke-width="6" stroke-linecap="butt" stroke-linejoin="miter"/><path d="M-50.55606,451.63106l-27.98659,-225.64447l612.09874,-95.61765l27.98659,225.64447z" fill="#a173ff" stroke="none" stroke-width="0" stroke-linecap="butt" stroke-linejoin="miter"/><path d="M93.03634,162.67643" fill="#faa51f" stroke="#8e5322" stroke-width="1.4" stroke-linecap="round" stroke-linejoin="round"/><g fill="#faa51f" stroke="#8e5322" stroke-width="1.4" stroke-linecap="round" stroke-linejoin="round"><path d="M88.33796,176.83187c0,0 -13.14308,3.92698 -27.16361,13.60144c-6.17395,4.13214 7.91173,11.92973 -5.04284,18.20163c-3.6322,1.63151 -12.19565,-14.04108 -12.79816,-18.36196c-0.63532,-3.93553 0.07393,-5.42773 3.68972,-6.86656c13.2415,-5.08303 28.85287,-24.32568 28.85287,-24.32568"/><path d="M57.25521,190.87595c1.93901,2.29987 2.89823,4.71039 2.89823,4.71039"/></g><g><path d="M88.94093,162.91c1.66848,0.91833 5.05463,2.17695 1.3321,9.42887c-3.93161,7.42819 -17.16894,10.1827 -18.74316,10.43684c-5.89509,0.85664 -13.348,1.77475 -21.92001,-0.11944c-24.40006,-5.18239 -27.62981,-31.07488 -20.60315,-36.10478c7.02666,-5.0299 12.29822,10.55651 23.98977,19.12066c5.29235,3.94385 11.03981,4.82128 15.85672,5.23135c6.72725,0.76677 18.17737,-8.3502 20.08773,-7.9935z" fill="#faa51f" stroke="none" stroke-width="1" stroke-linecap="butt" stroke-linejoin="miter"/><path d="M39.24303,151.69251c3.8944,4.40705 10.99454,12.19218 10.99454,12.19218c0,0 -8.1252,-0.30357 -11.76155,3.65645c-3.63635,3.96002 1.76251,11.21216 -1.59084,9.56818c-2.72611,-2.1728 -7.05508,-6.03464 -9.78928,-12.67179c-2.54152,-6.62075 -1.33602,-16.22174 2.31258,-18.04593c4.01755,-1.5987 6.50178,1.13574 9.83456,5.30091z" fill="#ffffff" stroke="none" stroke-width="1" stroke-linecap="butt" stroke-linejoin="miter"/><path d="M88.94093,162.91c1.66848,0.91833 5.05463,2.17695 1.3321,9.42887c-3.93161,7.42819 -17.16894,10.1827 -18.74316,10.43684c-5.89509,0.85664 -13.348,1.77475 -21.92001,-0.11944c-24.40006,-5.18239 -27.62981,-31.07488 -20.60315,-36.10478c7.02666,-5.0299 12.29822,10.55651 23.98977,19.12066c5.29235,3.94385 11.03981,4.82128 15.85672,5.23135c6.72725,0.76677 18.17737,-8.3502 20.08773,-7.9935z" fill="none" stroke="#8e5322" stroke-width="1.4" stroke-linecap="round" stroke-linejoin="round"/></g><path d="M117.0924,153.66225c-4.71063,12.0196 -8.45394,30.91408 -29.8777,22.68585c-21.40735,-8.42091 -13.10958,-23.8225 -8.39896,-35.8421c4.71062,-12.0196 13.28678,-12.45392 25.49906,-7.7269c11.82693,4.69422 17.48823,8.86356 12.7776,20.88316z" fill="#faa51f" stroke="#8e5322" stroke-width="1.4" stroke-linecap="round" stroke-linejoin="round"/><path d="M114.75558,158.31511c-2.42301,7.94476 -4.86634,9.28933 -16.30792,4.62792c-3.19348,-1.24223 -2.30795,-2.52535 0.4676,-10.05195c2.77555,-7.5266 7.67446,-8.07991 14.44677,-5.56265c4.5094,1.7424 3.57467,3.60354 1.39355,10.98668z" fill="#ffffff" stroke="none" stroke-width="1" stroke-linecap="butt" stroke-linejoin="miter"/><g><g><path d="M142.63074,52.00771l16.41465,-10.441l0.81113,22.38737c0,0 9.9205,11.13038 12.25294,17.9274c3.70566,11.18352 2.22964,19.40297 2.22964,19.40297c0,0 12.04825,6.65379 12.28574,17.54205c0.23749,10.88826 -12.17624,29.04462 -48.03451,28.51488c-35.87467,-0.33706 -61.55763,-15.52636 -70.20286,-39.35695c-8.48536,-23.42883 17.14931,-44.14703 15.68576,-42.91312l3.2108,-35.43595l20.56665,20.57588c0,0 8.86725,-1.57397 17.66473,-0.04874c3.25909,0.47152 8.94094,2.11966 11.78188,2.94373z" fill="#faa51f" stroke="none" stroke-width="1" stroke-linecap="butt" stroke-linejoin="miter"/><path d="M173.50277,101.98954c0,0 11.93759,5.67399 11.98241,16.54586c0.62285,10.92107 -12.91413,28.59366 -46.60376,27.66632c-7.73984,-0.27077 -14.53271,-0.26683 -25.01506,-2.51772c-16.22982,-3.12832 -31.75016,-16.87024 -26.09233,-37.73653c3.34549,-11.94174 18.51352,-7.73937 18.51352,-7.73937l14.21296,-0.53668c0,0 12.69189,5.9323 21.04256,5.86692c8.35067,-0.06538 9.66267,-6.35807 9.66267,-6.35807l17.77955,-1.39747l3.66893,4.776z" fill="#ffffff" stroke="none" stroke-width="1" stroke-linecap="butt" stroke-linejoin="miter"/><path d="M202.38752,113.76402c0,0 -4.21022,1.5823 -9.62155,1.31569c-4.44795,-0.18459 -12.81087,-2.25504 -12.81087,-2.25504" fill="none" stroke="#8e5322" stroke-width="1.4" stroke-linecap="round" stroke-linejoin="round"/><path d="M195.46297,133.55211c0,0 -3.41896,-0.87327 -8.05543,-3.40278c-4.84554,-2.35323 -8.78916,-6.18227 -8.78916,-6.18227" fill="none" stroke="#8e5322" stroke-width="1.4" stroke-linecap="round" stroke-linejoin="round"/><path d="M104.09973,46.39863l8.36685,8.86331" fill="none" stroke="#8e5322" stroke-width="1.4" stroke-linecap="round" stroke-linejoin="round"/><path d="M142.63074,52.00771l16.41465,-10.441l0.81113,22.38737c0,0 9.9205,11.13038 12.25294,17.9274c3.70566,11.18352 2.22964,19.40297 2.22964,19.40297c0,0 12.04825,6.65379 12.28574,17.54205c0.23749,10.88826 -12.17624,29.04462 -48.03451,28.51488c-35.87467,-0.33706 -61.55763,-15.52636 -70.20286,-39.35695c-8.48536,-23.42883 17.14931,-44.14703 15.68576,-42.91312l3.2108,-35.43595l20.56665,20.57588c0,0 8.86725,-1.57397 17.66473,-0.04874c3.25909,0.47152 8.94094,2.11966 11.78188,2.94373z" fill="none" stroke="#8e5322" stroke-width="1.4" stroke-linecap="round" stroke-linejoin="round"/><path d="M68.93291,99.29762c0,0 -6.6822,0.98371 -10.19958,1.26648c-3.51738,0.28278 -11.22441,-0.37333 -11.22441,-0.37333" fill="none" stroke="#8e5322" stroke-width="1.4" stroke-linecap="round" stroke-linejoin="round"/><path d="M47.76768,81.1937c0,0 4.18966,0.93889 11.84333,4.50155c7.09204,3.32077 7.09204,3.32077 11.27755,6.58817" fill="none" stroke="#8e5322" stroke-width="1.4" stroke-linecap="round" stroke-linejoin="round"/></g><g><path d="M167.9198,80.94258c3.67701,9.24035 1.70082,18.77573 -3.90735,20.82124c-5.83364,2.41446 -13.48316,-3.47671 -17.14377,-12.90974c-3.67701,-9.24035 -1.70081,-18.77573 3.90735,-20.82124c5.80084,-2.02911 13.46675,3.66939 17.14376,12.90974z" fill="#ffffff" stroke="#8e5322" stroke-width="1.4" stroke-linecap="round" stroke-linejoin="round"/><path d="M166.36592,87.7969c0.22133,1.95956 -1.09876,3.78791 -3.2346,3.80015c-1.76689,0.23772 -3.38615,-1.25863 -3.57467,-3.60355c-0.22133,-1.95956 1.09876,-3.7879 3.2346,-3.80015c1.92676,0.16403 3.35335,1.64399 3.57467,3.60354" fill="#414142" stroke="none" stroke-width="1" stroke-linecap="butt" stroke-linejoin="miter"/></g><g><path d="M122.78443,77.68234c3.67701,9.24035 0.91371,18.9028 -5.91611,21.62059c-6.82982,2.71779 -15.49193,-2.67737 -18.95986,-12.094c-3.67701,-9.24035 -0.9137,-18.90279 5.91612,-21.62059c6.81342,-2.52511 15.28284,2.85364 18.95985,12.09399z" fill="#ffffff" stroke="#8e5322" stroke-width="1.4" stroke-linecap="round" stroke-linejoin="round"/><path d="M120.61971,84.8728c-0.35671,1.91035 -2.222,3.30414 -3.93968,2.96384c-1.91035,-0.35671 -2.91879,-2.18921 -2.54569,-4.29224c0.35671,-1.91035 2.22201,-3.30413 3.93969,-2.96383c1.91035,0.35671 3.11146,2.20561 2.54568,4.29224" fill="#414142" stroke="none" stroke-width="1" stroke-linecap="butt" stroke-linejoin="miter"/></g><path d="M139.65326,100.66044c3.27549,0.27885 8.25642,-1.23784 7.94476,2.423c-0.3239,1.525 -4.6859,7.1699 -8.13766,6.68198c-3.83712,-0.52074 -9.51065,-6.82591 -8.70299,-9.47416c0.80766,-2.64825 5.98935,0.31581 8.89589,0.36918z" fill="#5f4b43" stroke="#8e5322" stroke-width="1.4" stroke-linecap="round" stroke-linejoin="round"/><path d="M130.79758,131.7344c-10.66278,-0.13145 -14.47518,-5.50189 -14.47518,-5.50189" fill="#ffffff" stroke="#8e5322" stroke-width="1.4" stroke-linecap="round" stroke-linejoin="round"/></g><g fill="#faa51f" stroke="#8e5322" stroke-width="1.4" stroke-linecap="round" stroke-linejoin="round"><path d="M100.95245,163.15626c0.75431,0.25829 13.67583,3.49312 14.43013,3.75141c14.84413,5.72737 8.40774,12.94232 3.89002,15.85694c-17.31241,9.58828 -0.15618,15.51248 -15.54575,18.47194c-4.70624,0.56971 -7.22719,-8.57223 -8.24787,-12.54056c-2.36109,-8.74018 0.27885,-3.27549 6.64547,-7.39122c-1.98821,-1.72183 -12.03601,-4.51796 -12.03601,-4.51796"/><path d="M108.56453,190.00406c2.44334,-1.34457 5.37044,-3.81239 7.37921,-4.61174"/><path d="M107.58499,180.99334c-0.99618,0.30334 -5.55481,-0.86104 -8.05959,-1.07428"/></g><g stroke="#8e5322" stroke-width="1.4" stroke-linecap="round" stroke-linejoin="round"><path d="M93.56978,142.73239c-0.57802,-0.04921 -8.95388,23.10863 -9.33924,23.07582c-3.85352,-0.32806 -6.98138,-2.34098 -7.41178,-4.12428c-2.25043,-7.7604 -0.04459,-19.99324 4.61267,-29.1063l1.73824,-2.18089" fill="#faa51f"/><path d="M90.08082,154.07971" fill="#faa51f"/><path d="M94.23375,148.61109" fill="none"/></g><path d="M86.2273,153.75166c11.21216,-1.7625 21.92808,4.58379 21.26388,7.82647c-1.6195,7.62502 -10.9213,9.74422 -26.50333,3.56589" fill="#faa51f" stroke="#8e5322" stroke-width="1.4" stroke-linecap="round" stroke-linejoin="round"/><text transform="translate(194.88233,94.02995) scale(1.9297,1.9297)" font-size="40" xml:space="preserve" fill="#000000" fill-rule="nonzero" stroke="none" stroke-width="1" stroke-linecap="butt" stroke-linejoin="miter" stroke-miterlimit="10" stroke-dasharray="" stroke-dashoffset="0" font-family="&quot;Bernard MT&quot;, Sans Serif" font-weight="normal" text-anchor="start" style="mix-blend-mode: normal"><tspan x="0" dy="0">Our Land</tspan></text></g></g></svg>