<svg version="1.1" xmlns="http://www.w3.org/2000/svg" xmlns:xlink="http://www.w3.org/1999/xlink" width="52.85697" height="62.98538" viewBox="0,0,52.85697,62.98538"><g transform="translate(-211.84919,-148.39285)"><g data-paper-data="{&quot;isPaintingLayer&quot;:true}" fill-rule="nonzero" stroke-linejoin="miter" stroke-miterlimit="10" stroke-dasharray="" stroke-dashoffset="0" style="mix-blend-mode: normal"><path d="M261.9454,163.8699v19.31662c0,0.38327 -0.15331,0.76654 -0.45992,0.91983c-2.45291,2.14629 -5.51904,3.21945 -8.66182,3.21945c-3.14279,0 -6.20891,-1.14981 -8.66182,-3.21945c-1.99299,-1.68637 -4.44589,-2.68287 -7.0521,-2.68287c-2.37623,0 -7.49093,0.62386 -9.40726,2.15691l0.05557,-19.71052c0,-0.61324 0.38327,-0.99648 0.76653,-1.22645c2.45291,-1.99299 5.36573,-3.06613 8.43186,-3.06613c3.14279,0 6.28557,1.1498 8.73848,3.21944c1.99299,1.68637 4.44589,2.60621 7.0521,2.60621c2.60621,0 5.0591,-0.91982 7.0521,-2.60621c0.45992,-0.3066 0.99649,-0.38327 1.45641,-0.15331c0.45992,0.22996 0.68988,0.68988 0.68988,1.22645z" fill="#fa9a00" stroke="#8d2700" stroke-width="2" stroke-linecap="butt"/><path d="M211.84919,211.37823v-62.98538h52.85697v62.98538z" fill="none" stroke="none" stroke-width="0" stroke-linecap="butt"/><path d="M222.61923,197.6129v-36.10368h5.5674v36.10368z" fill="#fae200" stroke="#9f7000" stroke-width="1.5" stroke-linecap="butt"/><path d="M231.89823,157.54456c0,3.40089 -2.8325,6.15786 -6.32659,6.15786c-3.49408,0 -6.32658,-2.75697 -6.32658,-6.15786c0,-3.40089 2.8325,-6.15786 6.32658,-6.15786c3.49408,0 6.32659,2.75697 6.32659,6.15786z" fill="#fae200" stroke="#9f7000" stroke-width="1.5" stroke-linecap="butt"/><path d="M220.59473,199.97484v-4.55513h9.61639v4.55513z" fill="#ffffff" stroke="#545454" stroke-width="1.5" stroke-linecap="butt"/><path d="M232.40434,199.13129v3.7116h-14.00282v-3.7116z" fill="#ffffff" stroke="#545454" stroke-width="1.5" stroke-linecap="butt"/><path d="M216.71443,207.90415v-4.89256h17.37699v4.89256z" fill="#fae200" stroke="#9f7000" stroke-width="1.5" stroke-linecap="butt"/><path d="M240.11926,174.53609l3.73139,2.93358" fill="none" stroke="#fae200" stroke-width="3.5" stroke-linecap="round"/><path d="M243.99933,177.33573l6.06316,-7.91569" fill="none" stroke="#fae200" stroke-width="3.5" stroke-linecap="round"/></g></g></svg>