<svg version="1.1" xmlns="http://www.w3.org/2000/svg" xmlns:xlink="http://www.w3.org/1999/xlink" width="513.45045" height="379.7966" viewBox="0,0,513.45045,379.7966"><defs><linearGradient x1="119" y1="245.15979" x2="209" y2="245.15979" gradientUnits="userSpaceOnUse" id="color-1"><stop offset="0" stop-color="#66ebff"/><stop offset="1" stop-color="#9966ff"/></linearGradient><linearGradient x1="282.3216" y1="188.86082" x2="372.3216" y2="188.86082" gradientUnits="userSpaceOnUse" id="color-2"><stop offset="0" stop-color="#66ebff"/><stop offset="1" stop-color="#9966ff"/></linearGradient><linearGradient x1="119" y1="136.46101" x2="209" y2="136.46101" gradientUnits="userSpaceOnUse" id="color-3"><stop offset="0" stop-color="#66ebff"/><stop offset="1" stop-color="#9966ff"/></linearGradient><linearGradient x1="251.84814" y1="303.3257" x2="341.84814" y2="303.3257" gradientUnits="userSpaceOnUse" id="color-4"><stop offset="0" stop-color="#66ebff"/><stop offset="1" stop-color="#9966ff"/></linearGradient><linearGradient x1="-14.71834" y1="360.00001" x2="494.71834" y2="360.00001" gradientUnits="userSpaceOnUse" id="color-5"><stop offset="0" stop-color="#66ebff"/><stop offset="1" stop-color="#9966ff"/></linearGradient><linearGradient x1="494.87757" y1="132.29659" x2="431.87757" y2="132.29659" gradientUnits="userSpaceOnUse" id="color-6"><stop offset="0" stop-color="#66ebff"/><stop offset="1" stop-color="#9966ff"/></linearGradient></defs><g transform="translate(18.57288,8.20342)"><g data-paper-data="{&quot;isPaintingLayer&quot;:true}" fill-rule="nonzero" stroke="none" stroke-width="0" stroke-linecap="butt" stroke-linejoin="miter" stroke-miterlimit="10" stroke-dasharray="" stroke-dashoffset="0" style="mix-blend-mode: normal"><path d="" fill="#9966ff"/><path d="" fill="#9966ff"/><path d="M119,254.15979v-18h90v18z" fill="url(#color-1)"/><path d="M282.3216,197.86082v-18h90v18z" fill="url(#color-2)"/><path d="M119,145.46101v-18h90v18z" fill="url(#color-3)"/><path d="M251.84814,312.3257v-18h90v18z" fill="url(#color-4)"/><path d="M-14.71834,371.59318v-23.18632h412.85494l11.26193,-42.39785h85.31981v65.58418z" fill="url(#color-5)"/><path d="M486.07592,30.19338l-504.6488,0.21432v-38.61111h513.45045z" data-paper-data="{&quot;index&quot;:null}" fill="url(#color-6)"/></g></g></svg>