<svg version="1.1" xmlns="http://www.w3.org/2000/svg" xmlns:xlink="http://www.w3.org/1999/xlink" width="505.28546" height="254.38298" viewBox="0,0,505.28546,254.38298"><defs><linearGradient x1="-14.5045" y1="232.55255" x2="258.76877" y2="232.55255" gradientUnits="userSpaceOnUse" id="color-1"><stop offset="0" stop-color="#66ebff"/><stop offset="1" stop-color="#9966ff"/></linearGradient></defs><g transform="translate(14.5045,-120.81222)"><g data-paper-data="{&quot;isPaintingLayer&quot;:true}" fill-rule="nonzero" stroke-linecap="butt" stroke-linejoin="miter" stroke-miterlimit="10" stroke-dasharray="" stroke-dashoffset="0" style="mix-blend-mode: normal"><path d="" data-paper-data="{&quot;index&quot;:null}" fill="#9966ff" stroke="none" stroke-width="0"/><path d="" data-paper-data="{&quot;index&quot;:null}" fill="#9966ff" stroke="none" stroke-width="0"/><path d="M311.29456,122.06224h-35.64728z" data-paper-data="{&quot;index&quot;:null}" fill="#ffd366" stroke="#000000" stroke-width="2.5"/><path d="" data-paper-data="{&quot;index&quot;:null}" fill="#ffd366" stroke="#000000" stroke-width="2.5"/><path d="" data-paper-data="{&quot;index&quot;:null}" fill="#ffd366" stroke="#000000" stroke-width="2.5"/><path d="" data-paper-data="{&quot;index&quot;:null}" fill="#ffd366" stroke="#000000" stroke-width="2.5"/><path d="" data-paper-data="{&quot;index&quot;:null}" fill="#ffd366" stroke="#000000" stroke-width="2.5"/><path d="" data-paper-data="{&quot;index&quot;:null}" fill="#ffd366" stroke="#000000" stroke-width="2.5"/><path d="" data-paper-data="{&quot;index&quot;:null}" fill="#ffd366" stroke="#000000" stroke-width="2.5"/><path d="" data-paper-data="{&quot;index&quot;:null}" fill="#ffd366" stroke="#000000" stroke-width="2.5"/><path d="" data-paper-data="{&quot;index&quot;:null}" fill="#ffd366" stroke="#000000" stroke-width="2.5"/><path d="" data-paper-data="{&quot;index&quot;:null}" fill="#ffd366" stroke="#000000" stroke-width="2.5"/><path d="" data-paper-data="{&quot;index&quot;:null}" fill="#ffd366" stroke="#000000" stroke-width="2.5"/><g data-paper-data="{&quot;index&quot;:null}" fill="#ffd366" stroke="#000000" stroke-width="2.5"><path d="M275.64728,122.06222h-35.64728z"/><path d=""/><path d=""/><path d="M275.64728,122.06223v35.64728h-35.64728v-35.64728z"/></g><path d="M275.64728,335.9459v35.64728h-35.64728v-35.64728z" data-paper-data="{&quot;index&quot;:null}" fill="#ffd366" stroke="#000000" stroke-width="2.5"/><path d="M489.53096,335.94588v35.64728h-35.64728v-35.64728z" data-paper-data="{&quot;index&quot;:null}" fill="#ffd366" stroke="#000000" stroke-width="2.5"/><g data-paper-data="{&quot;index&quot;:null}" fill="#ffd366" stroke="#000000" stroke-width="2.5"><path d="M489.53096,264.65132v35.64727h-35.64728v-35.64727z"/><path d="M489.53096,229.00405v35.64727h-35.64728v-35.64727z"/><path d="M489.53096,157.7095v35.64728h-35.64728v-35.64728z"/><path d="M489.53096,300.2986v35.64728h-35.64728v-35.64728z"/></g><g data-paper-data="{&quot;index&quot;:null}" fill="#ffd366" stroke="#000000" stroke-width="2.5"><path d="M489.53096,264.65132v35.64727h-35.64728v-35.64727z"/><path d="M489.53096,229.00405v35.64727h-35.64728v-35.64727z"/><path d="M489.53096,157.7095v35.64728h-35.64728v-35.64728z"/><path d="M489.53096,300.2986v35.64728h-35.64728v-35.64728z"/></g><path d="M453.88368,193.35678h-35.64727v-35.64728h35.64727z" data-paper-data="{&quot;index&quot;:null}" fill="#ffd366" stroke="#000000" stroke-width="2.5"/><path d="M382.58912,193.35678h-35.64727v-35.64728h35.64727z" data-paper-data="{&quot;index&quot;:null}" fill="#ffd366" stroke="#000000" stroke-width="2.5"/><path d="M418.23639,193.35678h-35.64728v-35.64728h35.64728z" data-paper-data="{&quot;index&quot;:null}" fill="#ffd366" stroke="#000000" stroke-width="2.5"/><g data-paper-data="{&quot;index&quot;:null}" fill="#ffd366" stroke="#000000" stroke-width="2.5"><path d="M489.53096,264.65132v35.64727h-35.64728v-35.64727z"/><path d="M489.53096,229.00405v35.64727h-35.64728v-35.64727z"/><path d="M489.53096,157.7095v35.64728h-35.64728v-35.64728z"/><path d="M489.53096,300.2986v35.64728h-35.64728v-35.64728z"/></g><g data-paper-data="{&quot;index&quot;:null}" fill="#ffd366" stroke="#000000" stroke-width="2.5"><path d="M489.53096,264.65132v35.64727h-35.64728v-35.64727z"/><path d="M489.53096,229.00405v35.64727h-35.64728v-35.64727z"/><path d="M489.53096,157.7095v35.64728h-35.64728v-35.64728z"/><path d="M489.53096,300.2986v35.64728h-35.64728v-35.64728z"/></g><g data-paper-data="{&quot;index&quot;:null}" fill="#ffd366" stroke="#000000" stroke-width="2.5"><path d="M275.64728,264.65134v35.64727h-35.64728v-35.64727z"/><path d="M275.64728,229.00407v35.64727h-35.64728v-35.64727z"/><path d="M275.64728,157.70952v35.64728h-35.64728v-35.64728z"/><path d="M275.64728,300.29862v35.64728h-35.64728v-35.64728z"/></g><path d="M275.64728,193.30326v35.64728h-35.64728v-35.64728z" data-paper-data="{&quot;index&quot;:null}" fill="#ffd366" stroke="#000000" stroke-width="2.5"/><g data-paper-data="{&quot;index&quot;:null}" fill="#ffd366" stroke="#000000" stroke-width="2.5"><path d="M489.53096,264.65132v35.64727h-35.64728v-35.64727z"/><path d="M489.53096,229.00405v35.64727h-35.64728v-35.64727z"/><path d="M489.53096,157.7095v35.64728h-35.64728v-35.64728z"/><path d="M489.53096,300.2986v35.64728h-35.64728v-35.64728z"/></g><path d="M489.53096,193.35678v35.64728h-35.64728v-35.64728z" data-paper-data="{&quot;index&quot;:null}" fill="#ffd366" stroke="#000000" stroke-width="2.5"/><path d="M311.29455,264.59782h-35.64727v-35.64728h35.64727z" data-paper-data="{&quot;index&quot;:null}" fill="#ffd366" stroke="#000000" stroke-width="2.5"/><path d="M311.29455,300.2451h-35.64727v-35.64728h35.64727z" data-paper-data="{&quot;index&quot;:null}" fill="#ffd366" stroke="#000000" stroke-width="2.5"/><path d="M346.94182,300.2451h-35.64727v-35.64728h35.64727z" data-paper-data="{&quot;index&quot;:null}" fill="#ffd366" stroke="#000000" stroke-width="2.5"/><path d="M453.88366,229.00406h-35.64727v-35.64728h35.64727z" data-paper-data="{&quot;index&quot;:null}" fill="#ffd366" stroke="#000000" stroke-width="2.5"/><path d="M-14.5045,375.1952l0,-160.66066h273.27327v36.03604h-238.73874l0,124.62462z" fill="url(#color-1)" stroke="none" stroke-width="0"/></g></g></svg>