<svg version="1.1" xmlns="http://www.w3.org/2000/svg" xmlns:xlink="http://www.w3.org/1999/xlink" width="537" height="426.94015" viewBox="0,0,537,426.94015"><defs><linearGradient x1="512.5" y1="340.50001" x2="-24.5" y2="340.50001" gradientUnits="userSpaceOnUse" id="color-1"><stop offset="0" stop-color="#66ebff"/><stop offset="1" stop-color="#9966ff"/></linearGradient><linearGradient x1="119" y1="201.5" x2="209" y2="201.5" gradientUnits="userSpaceOnUse" id="color-2"><stop offset="0" stop-color="#66ebff"/><stop offset="1" stop-color="#9966ff"/></linearGradient><linearGradient x1="282.3216" y1="145.20102" x2="372.3216" y2="145.20102" gradientUnits="userSpaceOnUse" id="color-3"><stop offset="0" stop-color="#66ebff"/><stop offset="1" stop-color="#9966ff"/></linearGradient><linearGradient x1="119" y1="92.80121" x2="209" y2="92.80121" gradientUnits="userSpaceOnUse" id="color-4"><stop offset="0" stop-color="#66ebff"/><stop offset="1" stop-color="#9966ff"/></linearGradient><linearGradient x1="-16.86093" y1="5.64565" x2="390.74495" y2="5.64565" gradientUnits="userSpaceOnUse" id="color-5"><stop offset="0" stop-color="#66ebff"/><stop offset="1" stop-color="#9966ff"/></linearGradient><linearGradient x1="-14.71834" y1="8.60216" x2="494.71834" y2="8.60216" gradientUnits="userSpaceOnUse" id="color-6"><stop offset="0" stop-color="#66ebff"/><stop offset="1" stop-color="#9966ff"/></linearGradient></defs><g transform="translate(24.5,33.94014)"><g data-paper-data="{&quot;isPaintingLayer&quot;:true}" fill-rule="nonzero" stroke="none" stroke-width="0" stroke-linecap="butt" stroke-linejoin="miter" stroke-miterlimit="10" stroke-dasharray="" stroke-dashoffset="0" style="mix-blend-mode: normal"><path d="M-24.5,393.00001v-105h537v105z" data-paper-data="{&quot;index&quot;:null}" fill="url(#color-1)"/><path d="" fill="#9966ff"/><path d="M119,210.5v-18h90v18z" fill="url(#color-2)"/><path d="M282.3216,154.20102v-18h90v18z" fill="url(#color-3)"/><path d="M119,101.80121v-18h90v18z" fill="url(#color-4)"/><path d="M105.97471,17.77472l-122.83564,-0.00001v-51.71485h175.67512z" data-paper-data="{&quot;index&quot;:null}" fill="url(#color-5)"/><path d="M494.71834,-2.991v65.58418h-85.31981l-16.18905,-65.55533z" data-paper-data="{&quot;index&quot;:null}" fill="url(#color-6)"/></g></g></svg>