<svg version="1.1" xmlns="http://www.w3.org/2000/svg" xmlns:xlink="http://www.w3.org/1999/xlink" width="44.63548" height="31.80624" viewBox="0,0,44.63548,31.80624"><g transform="translate(-372.76995,-12.76634)"><g data-paper-data="{&quot;isPaintingLayer&quot;:true}" fill-rule="nonzero" stroke-width="0.75" stroke-miterlimit="10" stroke-dasharray="" stroke-dashoffset="0" style="mix-blend-mode: normal"><path d="M397.18631,16.95752l3.92521,-3.81618l1.52648,6.10588c0,0 3.38004,2.50832 4.41586,4.25231c1.69002,2.88994 1.74399,5.23361 1.74399,5.23361c0,0 3.76221,1.14486 4.41641,4.14328c0.6542,2.99842 -1.69002,8.72269 -11.61154,10.68529c-9.92206,1.96261 -17.88206,-0.70872 -21.64317,-6.76008c-3.70715,-5.99685 2.18067,-13.19307 1.85303,-12.75694l-1.19937,-9.97657l6.86912,4.47038c0,0 2.34367,-0.92679 4.85199,-1.03582c0.92624,-0.05451 2.61681,0.05452 3.43456,0.10903z" fill="#faa51f" stroke="none" stroke-linecap="butt" stroke-linejoin="miter"/><path d="M408.58033,29.00628c0,0 3.59811,0.87227 4.25231,3.8707c0.81775,2.99842 -1.85411,8.66817 -11.23046,10.35819c-2.12615,0.38162 -4.03424,0.76324 -7.03267,0.76324c-4.63393,0.05397 -9.704,-2.83488 -9.32238,-8.88624c0.21752,-3.48907 4.63393,-3.2165 4.63393,-3.2165l3.8707,-0.9813c0,0 3.87069,0.87172 6.16039,0.38162c2.28971,-0.49065 2.28971,-2.28971 2.28971,-2.28971l4.79748,-1.41798l1.3084,1.09033z" fill="#ffffff" stroke="none" stroke-linecap="butt" stroke-linejoin="miter"/><path d="M417.03043,29.44241c0,0 -0.98076,0.87227 -2.39874,1.36292c-1.19991,0.43614 -3.59811,0.81775 -3.59811,0.81775" fill="none" stroke="#8e5322" stroke-linecap="round" stroke-linejoin="round"/><path d="M416.70279,35.5483c0,0 -0.9813,0.10903 -2.45326,-0.05506c-1.52592,-0.10849 -2.94337,-0.70871 -2.94337,-0.70871" fill="none" stroke="#8e5322" stroke-linecap="round" stroke-linejoin="round"/><path d="M389.06331,19.68391l-2.83487,-1.96261" fill="none" stroke="#8e5322" stroke-linecap="round" stroke-linejoin="round"/><path d="M397.18631,16.95752l3.92521,-3.81618l1.52648,6.10588c0,0 3.38004,2.50832 4.41586,4.25231c1.69002,2.88994 1.74399,5.23361 1.74399,5.23361c0,0 3.76221,1.14486 4.41641,4.14328c0.6542,2.99842 -1.69002,8.72269 -11.61154,10.68529c-9.92206,1.96261 -17.88206,-0.70872 -21.64317,-6.76008c-3.70715,-5.99685 2.18067,-13.19307 1.85303,-12.75694l-1.19937,-9.97657l6.86912,4.47038c0,0 2.34367,-0.92679 4.85199,-1.03582c0.92624,-0.05451 2.61681,0.05452 3.43456,0.10903z" fill="none" stroke="#8e5322" stroke-linecap="round" stroke-linejoin="round"/><path d="M379.6319,34.34838c0,0 -1.90808,0.27258 -2.88939,0.3271c-0.98131,0.05452 -3.16197,-0.16355 -3.16197,-0.16355" fill="none" stroke="#8e5322" stroke-linecap="round" stroke-linejoin="round"/><path d="M373.14495,29.27886c0,0 1.19937,0.21752 3.38004,1.19937c1.96206,0.87227 3.21594,1.79906 3.21594,1.79906" fill="none" stroke="#8e5322" stroke-linecap="round" stroke-linejoin="round"/><path d="M405.85449,23.5546c1.52647,2.34422 1.58044,5.07006 0.10903,5.99685c-1.47195,0.9813 -3.92521,-0.16355 -5.45168,-2.56229c-1.52702,-2.34423 -1.58098,-5.07006 -0.10903,-5.99685c1.47195,-0.92678 3.92521,0.21806 5.45168,2.56229z" fill="#ffffff" stroke="#8e5322" stroke-linecap="round" stroke-linejoin="round"/><path d="M405.79997,25.51666c0.16409,0.54517 -0.10849,1.09033 -0.65366,1.25389c-0.49065,0.16409 -1.03582,-0.16355 -1.19937,-0.76269c-0.16355,-0.54517 0.10904,-1.09033 0.6542,-1.25389c0.54462,-0.10903 1.03528,0.21752 1.19882,0.76269" fill="#414142" stroke="none" stroke-linecap="butt" stroke-linejoin="miter"/><path d="M393.20658,25.24407c1.52647,2.34422 1.36292,5.1791 -0.38162,6.3245c-1.74454,1.14485 -4.41586,0.16355 -5.94178,-2.23574c-1.52702,-2.34423 -1.36292,-5.17909 0.38107,-6.32395c1.74454,-1.08979 4.41586,-0.10849 5.94233,2.23519z" fill="#ffffff" stroke="#8e5322" stroke-linecap="round" stroke-linejoin="round"/><path d="M393.04304,27.37077c0,0.54517 -0.43613,1.03527 -0.92678,1.03527c-0.54517,0 -0.92678,-0.43614 -0.92678,-1.03527c0,-0.54517 0.43613,-1.03582 0.92678,-1.03582c0.49065,0 0.92678,0.43559 0.92678,1.03582" fill="#414142" stroke="none" stroke-linecap="butt" stroke-linejoin="miter"/><path d="M399.20344,30.64178c0.92678,-0.10903 2.18067,-0.81775 2.34422,0.21752c0,0.43668 -0.87227,2.23574 -1.85303,2.28971c-1.09033,0.05506 -2.99842,-1.30786 -2.9439,-2.12561c0.05451,-0.81775 1.63496,-0.27258 2.45271,-0.38162z" fill="#5f4b43" stroke="#8e5322" stroke-linecap="round" stroke-linejoin="round"/><path d="M398.54869,39.69103c-2.94337,0.60023 -4.30628,-0.6542 -4.30628,-0.6542" fill="#ffffff" stroke="#8e5322" stroke-linecap="round" stroke-linejoin="round"/></g></g></svg>