<svg version="1.1" xmlns="http://www.w3.org/2000/svg" xmlns:xlink="http://www.w3.org/1999/xlink" width="99.19756" height="99.19756" viewBox="0,0,99.19756,99.19756"><defs><radialGradient cx="239.08635" cy="182.80953" r="49.59878" gradientUnits="userSpaceOnUse" id="color-1"><stop offset="0" stop-color="#ffffff"/><stop offset="1" stop-color="#ffffff" stop-opacity="0"/></radialGradient><linearGradient x1="207.8983" y1="180.00001" x2="272.1017" y2="180.00001" gradientUnits="userSpaceOnUse" id="color-2"><stop offset="0" stop-color="#ffea00"/><stop offset="1" stop-color="#ff8900"/></linearGradient></defs><g transform="translate(-190.40122,-130.40124)"><g data-paper-data="{&quot;isPaintingLayer&quot;:true}" fill-rule="nonzero" stroke-linejoin="miter" stroke-miterlimit="10" stroke-dasharray="" stroke-dashoffset="0" style="mix-blend-mode: normal"><path d="M190.40122,180.00002c0,-27.39266 22.20615,-49.59878 49.59878,-49.59878c27.39266,0 49.59878,22.20615 49.59878,49.59878c0,27.39266 -22.20615,49.59878 -49.59878,49.59878c-27.39266,0 -49.59878,-22.20615 -49.59878,-49.59878z" fill="url(#color-1)" stroke="none" stroke-width="1" stroke-linecap="butt"/><path d="M194.60608,223.4298v-86.85955h90.78787v86.85955z" fill="none" stroke="none" stroke-width="0" stroke-linecap="butt"/><g><path d="M207.8983,196.62037v-33.24073h64.20341v33.24073z" fill="url(#color-2)" stroke="#4b4b4b" stroke-width="4.5" stroke-linecap="butt"/><path d="M257.09427,189.52417c0,0 -4.7225,2.24089 -7.0428,2.24089c-2.26694,0 -6.72266,-2.24089 -6.72266,-2.24089" fill="none" stroke="#000000" stroke-width="1.65" stroke-linecap="round"/><text transform="translate(222.09437,186.33166) scale(0.95201,0.54879)" font-size="40" xml:space="preserve" fill="#000000" fill-rule="nonzero" stroke="none" stroke-width="1" stroke-linecap="butt" stroke-linejoin="miter" stroke-miterlimit="10" stroke-dasharray="" stroke-dashoffset="0" font-family="&quot;Bernard MT&quot;, Sans Serif" font-weight="normal" text-anchor="start" style="mix-blend-mode: normal"><tspan x="0" dy="0">5$</tspan></text></g></g></g></svg>