<svg version="1.1" xmlns="http://www.w3.org/2000/svg" xmlns:xlink="http://www.w3.org/1999/xlink" width="513.45045" height="396.63652" viewBox="0,0,513.45045,396.63652"><defs><linearGradient x1="119" y1="201.50002" x2="209" y2="201.50002" gradientUnits="userSpaceOnUse" id="color-1"><stop offset="0" stop-color="#66ebff"/><stop offset="1" stop-color="#9966ff"/></linearGradient><linearGradient x1="285.73224" y1="145.20103" x2="431.66676" y2="145.20103" gradientUnits="userSpaceOnUse" id="color-2"><stop offset="0" stop-color="#66ebff"/><stop offset="1" stop-color="#9966ff"/></linearGradient><linearGradient x1="119" y1="92.80122" x2="209" y2="92.80122" gradientUnits="userSpaceOnUse" id="color-3"><stop offset="0" stop-color="#66ebff"/><stop offset="1" stop-color="#9966ff"/></linearGradient><linearGradient x1="-217.35498" y1="370.61901" x2="190.2509" y2="370.61901" gradientUnits="userSpaceOnUse" id="color-4"><stop offset="0" stop-color="#66ebff"/><stop offset="1" stop-color="#9966ff"/></linearGradient><linearGradient x1="289.68639" y1="1651.76646" x2="289.68639" y2="661.72331" gradientUnits="userSpaceOnUse" id="color-5"><stop offset="0" stop-color="#66ebff"/><stop offset="1" stop-color="#9966ff"/></linearGradient><linearGradient x1="489.95045" y1="132.2966" x2="426.95045" y2="132.2966" gradientUnits="userSpaceOnUse" id="color-6"><stop offset="0" stop-color="#66ebff"/><stop offset="1" stop-color="#9966ff"/></linearGradient></defs><g transform="translate(23.5,8.20341)"><g data-paper-data="{&quot;isPaintingLayer&quot;:true}" fill-rule="nonzero" stroke="none" stroke-width="0" stroke-linecap="butt" stroke-linejoin="miter" stroke-miterlimit="10" stroke-dasharray="" stroke-dashoffset="0" style="mix-blend-mode: normal"><path d="" fill="#9966ff"/><path d="M119,210.50002v-18h90v18z" fill="url(#color-1)"/><path d="M285.73224,154.20103v-18h145.93452v18z" fill="url(#color-2)"/><path d="M119,101.80122v-18h90v18z" fill="url(#color-3)"/><path d="M341.12861,295.25305l-0.08575,93.18006l-33.47658,-0.04227l-0.46066,-51.06389z" data-paper-data="{&quot;index&quot;:null}" fill="url(#color-4)"/><path d="M312.4104,377.89226l-331.70327,-1.1189l-0.02885,-81.31202l360.45033,-0.20827z" data-paper-data="{&quot;index&quot;:null}" fill="url(#color-5)"/><path d="M426.95045,272.79659v-242.60321l-450.45045,0.21432v-38.61111h513.45045v281.00001z" data-paper-data="{&quot;index&quot;:null}" fill="url(#color-6)"/></g></g></svg>