<svg version="1.1" xmlns="http://www.w3.org/2000/svg" xmlns:xlink="http://www.w3.org/1999/xlink" width="612.59892" height="405.16846" viewBox="0,0,612.59892,405.16846"><defs><linearGradient x1="359.96911" y1="-201.86098" x2="312.91772" y2="-201.86098" gradientUnits="userSpaceOnUse" id="color-1"><stop offset="0" stop-color="#66ebff"/><stop offset="1" stop-color="#9966ff"/></linearGradient><linearGradient x1="-24.5" y1="340.5" x2="512.5" y2="340.5" gradientUnits="userSpaceOnUse" id="color-2"><stop offset="0" stop-color="#9966ff"/><stop offset="1" stop-color="#66ebff"/></linearGradient><linearGradient x1="865.58921" y1="5.64565" x2="457.98333" y2="5.64565" gradientUnits="userSpaceOnUse" id="color-3"><stop offset="0" stop-color="#66ebff"/><stop offset="1" stop-color="#9966ff"/></linearGradient></defs><g transform="translate(24.5,12.16847)"><g data-paper-data="{&quot;isPaintingLayer&quot;:true}" fill-rule="nonzero" stroke="none" stroke-linecap="butt" stroke-linejoin="miter" stroke-miterlimit="10" stroke-dasharray="" stroke-dashoffset="0" style="mix-blend-mode: normal"><path d="M338.93492,59.7161h-362.43492v-71.88456l336.41772,0.39901z" data-paper-data="{&quot;index&quot;:null}" fill="url(#color-1)" stroke-width="0"/><path d="M-24.5,393l24,-405c0,0 22.55061,300 33.3717,300c55.93665,0 479.6283,0 479.6283,0v105z" fill="url(#color-2)" stroke-width="0"/><path d="" fill="#9966ff" stroke-width="0"/><text transform="translate(60.35902,312.62466) rotate(9.22608) scale(0.5,0.5)" font-size="40" xml:space="preserve" fill="#000000" fill-rule="nonzero" stroke="none" stroke-width="1" stroke-linecap="butt" stroke-linejoin="miter" stroke-miterlimit="10" stroke-dasharray="" stroke-dashoffset="0" font-family="&quot;Bernard MT&quot;, Sans Serif" font-weight="normal" text-anchor="start" style="mix-blend-mode: normal"><tspan x="0" dy="0">Hello! Welcome to Our Land!</tspan></text><text transform="translate(346.8717,321.20102) scale(0.5,0.5)" font-size="40" xml:space="preserve" fill="#000000" fill-rule="nonzero" stroke="none" stroke-width="1" stroke-linecap="butt" stroke-linejoin="miter" stroke-miterlimit="10" stroke-dasharray="" stroke-dashoffset="0" font-family="&quot;Bernard MT&quot;, Sans Serif" font-weight="normal" text-anchor="start" style="mix-blend-mode: normal"><tspan x="0" dy="0">This way!</tspan><tspan x="0" dy="46.15px">      →</tspan></text><path d="M307.10562,81.0116l0.08575,-93.18006l33.47658,0.04227l0.46066,51.06389l33.80222,-0.1057l0.06115,23.18733l159.98389,0.14319l53.12305,18.84907z" data-paper-data="{&quot;index&quot;:null}" fill="url(#color-3)" stroke-width="0"/></g></g></svg>