<svg version="1.1" xmlns="http://www.w3.org/2000/svg" xmlns:xlink="http://www.w3.org/1999/xlink" width="48.63336" height="48.63336" viewBox="0,0,48.63336,48.63336"><defs><radialGradient cx="239.55208" cy="181.37742" r="24.31668" gradientUnits="userSpaceOnUse" id="color-1"><stop offset="0" stop-color="#ffffff"/><stop offset="1" stop-color="#ffffff" stop-opacity="0"/></radialGradient><linearGradient x1="227.45397" y1="180.00001" x2="252.54608" y2="180.00001" gradientUnits="userSpaceOnUse" id="color-2"><stop offset="0" stop-color="#ffd854"/><stop offset="1" stop-color="#fbff00"/></linearGradient></defs><g transform="translate(-215.68334,-155.68334)"><g data-paper-data="{&quot;isPaintingLayer&quot;:true}" fill-rule="nonzero" stroke-linejoin="miter" stroke-miterlimit="10" stroke-dasharray="" stroke-dashoffset="0" style="mix-blend-mode: normal"><path d="M215.68334,180.00002c0,-13.42973 10.88695,-24.31668 24.31668,-24.31668c13.42973,0 24.31668,10.88695 24.31668,24.31668c0,13.42973 -10.88695,24.31668 -24.31668,24.31668c-13.42973,0 -24.31668,-10.88695 -24.31668,-24.31668z" fill="url(#color-1)" stroke="none" stroke-width="1" stroke-linecap="butt"/><path d="M218.71986,200.3468v-40.6936h42.56028v40.6936z" fill="none" stroke="none" stroke-width="0" stroke-linecap="butt"/><path d="M227.45397,180.00001c0,-6.92899 5.61706,-12.54605 12.54606,-12.54605c6.929,0 12.54605,5.61706 12.54605,12.54606c0,6.929 -5.61706,12.54606 -12.54605,12.54606c-6.92899,0 -12.54606,-5.61706 -12.54606,-12.54606z" fill="url(#color-2)" stroke="#000000" stroke-width="1.65" stroke-linecap="butt"/><path d="M237.52085,172.41669v12.12648" fill="none" stroke="#000000" stroke-width="1.65" stroke-linecap="round"/><path d="M242.47919,172.41667v12.12648" fill="none" stroke="#000000" stroke-width="1.65" stroke-linecap="round"/><path d="M246.41668,187.29167c0,0 -4.30266,2.04167 -6.41667,2.04167c-2.06541,0 -6.125,-2.04167 -6.125,-2.04167" fill="none" stroke="#000000" stroke-width="1.65" stroke-linecap="round"/><path d="M234.89584,182.33334c0,0 10.63186,1.75101 10.49265,-0.55514c-0.23576,-3.90551 -10.7185,-2.18174 -10.33497,-5.06388c0.52857,-3.97205 10.19649,-1.67265 10.19649,-1.67265" fill="none" stroke="#000000" stroke-width="1.65" stroke-linecap="round"/></g></g></svg>