<svg version="1.1" xmlns="http://www.w3.org/2000/svg" xmlns:xlink="http://www.w3.org/1999/xlink" width="39.39998" height="39.39998" viewBox="0,0,39.39998,39.39998"><g transform="translate(-220.30001,-160.30005)"><g data-paper-data="{&quot;isPaintingLayer&quot;:true}" fill-rule="nonzero" stroke-linejoin="miter" stroke-miterlimit="10" stroke-dasharray="" stroke-dashoffset="0" style="mix-blend-mode: normal"><path d="M224.15003,180.00004c0,-8.75372 7.09629,-15.85001 15.85001,-15.85001c8.75372,0 15.85001,7.09629 15.85001,15.85001c0,8.75372 -7.09629,15.85001 -15.85001,15.85001c-8.75372,0 -15.85001,-7.09629 -15.85001,-15.85001z" fill="#ffffff" stroke="none" stroke-width="0" stroke-linecap="butt"/><path d="M221.30001,180.00004c0,-10.32772 8.37227,-18.69999 18.69999,-18.69999c10.32772,0 18.69999,8.37227 18.69999,18.69999c0,10.32772 -8.37227,18.69999 -18.69999,18.69999c-10.32772,0 -18.69999,-8.37227 -18.69999,-18.69999z" fill="none" stroke="#ffffff" stroke-width="2" stroke-linecap="butt"/><path d="M230.89714,185.89378v-8.20804h11.41721v8.20804z" fill="#c9c9c9" stroke="none" stroke-width="0" stroke-linecap="butt"/><path d="M230.89714,177.68574h11.17035" fill="none" stroke="#000000" stroke-width="1" stroke-linecap="round"/><path d="M236.60574,181.78976v-9.08406h14.00922v9.08406z" fill="#636363" stroke="none" stroke-width="0" stroke-linecap="butt"/><path d="M236.66746,173.25486h13.9475" fill="none" stroke="#000000" stroke-width="1" stroke-linecap="round"/></g></g></svg>