<svg version="1.1" xmlns="http://www.w3.org/2000/svg" xmlns:xlink="http://www.w3.org/1999/xlink" width="513.29122" height="399.21934" viewBox="0,0,513.29122,399.21934"><defs><linearGradient x1="494.87757" y1="132.29659" x2="431.87757" y2="132.29659" gradientUnits="userSpaceOnUse" id="color-1"><stop offset="0" stop-color="#66ebff"/><stop offset="1" stop-color="#9966ff"/></linearGradient><linearGradient x1="494.71834" y1="360.00001" x2="-14.71834" y2="360.00001" gradientUnits="userSpaceOnUse" id="color-2"><stop offset="0" stop-color="#66ebff"/><stop offset="1" stop-color="#9966ff"/></linearGradient></defs><g transform="translate(18.57288,27.62616)"><g data-paper-data="{&quot;isPaintingLayer&quot;:true}" fill-rule="nonzero" stroke-linecap="butt" stroke-linejoin="miter" stroke-miterlimit="10" stroke-dasharray="" stroke-dashoffset="0" style="mix-blend-mode: normal"><path d="M245.63234,30.19338l-264.20522,0.21432v-38.61111l273.00687,0z" data-paper-data="{&quot;index&quot;:null}" fill="url(#color-1)" stroke="none" stroke-width="0"/><path d="" fill="#9966ff" stroke="none" stroke-width="0"/><path d="" fill="#9966ff" stroke="none" stroke-width="0"/><path d="M-14.71834,371.59318v-65.58418h85.31981l11.26193,42.39785h412.85494v23.18632z" data-paper-data="{&quot;index&quot;:null}" fill="url(#color-2)" stroke="none" stroke-width="0"/><path d="M275.64728,258.80206v-35.64728h35.64728v35.64728z" fill="#ffd366" stroke="#000000" stroke-width="2.5"/><path d="M275.64728,294.44934v-35.64727h35.64728v35.64727z" fill="#ffd366" stroke="#000000" stroke-width="2.5"/><path d="M275.64728,330.09661v-35.64728h35.64728v35.64728z" fill="#ffd366" stroke="#000000" stroke-width="2.5"/><path d="M275.64728,365.74389v-35.64728h35.64728v35.64728z" fill="#ffd366" stroke="#000000" stroke-width="2.5"/><path d="M311.29456,294.44934v-35.64727h35.64728v35.64727z" fill="#ffd366" stroke="#000000" stroke-width="2.5"/><path d="M311.29456,330.09661v-35.64728h35.64728v35.64728z" fill="#ffd366" stroke="#000000" stroke-width="2.5"/><path d="M346.94184,330.09661v-35.64728h35.64728v35.64728z" fill="#ffd366" stroke="#000000" stroke-width="2.5"/><path d="M382.58912,365.74389v-35.64728h35.64728v35.64728z" fill="#ffd366" stroke="#000000" stroke-width="2.5"/><path d="M346.94184,365.74389v-35.64727h35.64728v35.64727z" fill="#ffd366" stroke="#000000" stroke-width="2.5"/><path d="M311.29456,365.74389v-35.64728h35.64728v35.64728z" fill="#ffd366" stroke="#000000" stroke-width="2.5"/><path d="M240,330.09661v-35.64728h35.64728v35.64728z" fill="#ffd366" stroke="#000000" stroke-width="2.5"/><g fill="#ffd366" stroke="#000000" stroke-width="2.5"><path d="M240,258.80207v-35.64727h35.64728v35.64727z"/><path d="M240,294.44934v-35.64727h35.64728v35.64727z"/><path d="M240,365.74389v-35.64728h35.64728v35.64728z"/><path d="M240,223.15479v-35.64728h35.64728v35.64728z"/></g><path d="M240,9.27112v-35.64728h35.64728v35.64728z" fill="#ffd366" stroke="#000000" stroke-width="2.5"/><path d="M453.88368,9.27114v-35.64728h35.64728v35.64728z" fill="#ffd366" stroke="#000000" stroke-width="2.5"/><g fill="#ffd366" stroke="#000000" stroke-width="2.5"><path d="M453.88368,80.5657v-35.64727h35.64728v35.64727z"/><path d="M453.88368,116.21297v-35.64727h35.64728v35.64727z"/><path d="M453.88368,187.50752v-35.64728h35.64728v35.64728z"/><path d="M453.88368,44.91842v-35.64728h35.64728v35.64728z"/></g><g fill="#ffd366" stroke="#000000" stroke-width="2.5"><path d="M453.88368,80.5657v-35.64727h35.64728v35.64727z"/><path d="M453.88368,116.21297v-35.64727h35.64728v35.64727z"/><path d="M453.88368,187.50752v-35.64728h35.64728v35.64728z"/><path d="M453.88368,44.91842v-35.64728h35.64728v35.64728z"/></g><path d="M453.88368,187.50752h-35.64727v-35.64728h35.64727z" fill="#ffd366" stroke="#000000" stroke-width="2.5"/><path d="M382.58912,187.50752h-35.64727v-35.64728h35.64727z" fill="#ffd366" stroke="#000000" stroke-width="2.5"/><path d="M418.23639,187.50752h-35.64728v-35.64728h35.64728z" fill="#ffd366" stroke="#000000" stroke-width="2.5"/><g fill="#ffd366" stroke="#000000" stroke-width="2.5"><path d="M453.88368,80.5657v-35.64727h35.64728v35.64727z"/><path d="M453.88368,116.21297v-35.64727h35.64728v35.64727z"/><path d="M453.88368,187.50752v-35.64728h35.64728v35.64728z"/><path d="M453.88368,44.91842v-35.64728h35.64728v35.64728z"/></g><g fill="#ffd366" stroke="#000000" stroke-width="2.5"><path d="M453.88368,80.5657v-35.64727h35.64728v35.64727z"/><path d="M453.88368,116.21297v-35.64727h35.64728v35.64727z"/><path d="M453.88368,187.50752v-35.64728h35.64728v35.64728z"/><path d="M453.88368,44.91842v-35.64728h35.64728v35.64728z"/></g><g fill="#ffd366" stroke="#000000" stroke-width="2.5"><path d="M240,80.56568v-35.64727h35.64728v35.64727z"/><path d="M240,116.21295v-35.64727h35.64728v35.64727z"/><path d="M240,187.5075v-35.64728h35.64728v35.64728z"/><path d="M240,44.9184v-35.64728h35.64728v35.64728z"/></g><path d="M240,151.91376v-35.64728h35.64728v35.64728z" fill="#ffd366" stroke="#000000" stroke-width="2.5"/><g fill="#ffd366" stroke="#000000" stroke-width="2.5"><path d="M453.88368,80.5657v-35.64727h35.64728v35.64727z"/><path d="M453.88368,116.21297v-35.64727h35.64728v35.64727z"/><path d="M453.88368,187.50752v-35.64728h35.64728v35.64728z"/><path d="M453.88368,44.91842v-35.64728h35.64728v35.64728z"/></g><path d="M453.88368,151.86024v-35.64728h35.64728v35.64728z" fill="#ffd366" stroke="#000000" stroke-width="2.5"/><path d="M311.29455,116.26648h-35.64727v-35.64728h35.64727z" fill="#ffd366" stroke="#000000" stroke-width="2.5"/><path d="M311.29455,80.6192h-35.64727v-35.64728h35.64727z" fill="#ffd366" stroke="#000000" stroke-width="2.5"/><path d="M346.94182,80.6192h-35.64727v-35.64728h35.64727z" fill="#ffd366" stroke="#000000" stroke-width="2.5"/><path d="M453.88366,151.86024h-35.64727v-35.64728h35.64727z" fill="#ffd366" stroke="#000000" stroke-width="2.5"/></g></g></svg>