<svg version="1.1" xmlns="http://www.w3.org/2000/svg" xmlns:xlink="http://www.w3.org/1999/xlink" width="136.57126" height="136.57126" viewBox="0,0,136.57126,136.57126"><defs><radialGradient cx="240" cy="180" r="68.28563" gradientUnits="userSpaceOnUse" id="color-1"><stop offset="0" stop-color="#ffd200"/><stop offset="1" stop-color="#ffd200" stop-opacity="0"/></radialGradient><linearGradient x1="240" y1="142.44789" x2="240" y2="217.83874" gradientUnits="userSpaceOnUse" id="color-2"><stop offset="0" stop-color="#fdff89"/><stop offset="1" stop-color="#d6d440"/></linearGradient></defs><g transform="translate(-171.71437,-111.71437)"><g data-paper-data="{&quot;isPaintingLayer&quot;:true}" fill-rule="nonzero" stroke-linecap="butt" stroke-linejoin="miter" stroke-miterlimit="10" stroke-dasharray="" stroke-dashoffset="0" style="mix-blend-mode: normal"><path d="M171.71437,180c0,-37.71312 30.57252,-68.28563 68.28563,-68.28563c37.71312,0 68.28563,30.57252 68.28563,68.28563c0,37.71312 -30.57252,68.28563 -68.28563,68.28563c-37.71312,0 -68.28563,-30.57252 -68.28563,-68.28563z" fill="url(#color-1)" stroke="none" stroke-width="0"/><path d="M202.30458,180.14332c0,-20.81861 16.87681,-37.69542 37.69542,-37.69542c20.81861,0 37.69542,16.87681 37.69542,37.69542c0,20.81861 -16.87681,37.69542 -37.69542,37.69542c-20.81861,0 -37.69542,-16.87681 -37.69542,-37.69542z" fill="url(#color-2)" stroke="#644a00" stroke-width="7.5"/></g></g></svg>