<svg version="1.1" xmlns="http://www.w3.org/2000/svg" xmlns:xlink="http://www.w3.org/1999/xlink" width="89.25074" height="83.5036" viewBox="0,0,89.25074,83.5036"><defs><linearGradient x1="250.89533" y1="176.48705" x2="284.62537" y2="176.48705" gradientUnits="userSpaceOnUse" id="color-1"><stop offset="0" stop-color="#feff8e"/><stop offset="1" stop-color="#feff8e" stop-opacity="0"/></linearGradient><linearGradient x1="237.35741" y1="171.97824" x2="237.35741" y2="138.2482" gradientUnits="userSpaceOnUse" id="color-2"><stop offset="0" stop-color="#feff8e"/><stop offset="1" stop-color="#feff8e" stop-opacity="0"/></linearGradient><linearGradient x1="237.35741" y1="188.02176" x2="237.35741" y2="221.7518" gradientUnits="userSpaceOnUse" id="color-3"><stop offset="0" stop-color="#feff8e"/><stop offset="1" stop-color="#feff8e" stop-opacity="0"/></linearGradient><linearGradient x1="229.10468" y1="176.47855" x2="195.37463" y2="176.47855" gradientUnits="userSpaceOnUse" id="color-4"><stop offset="0" stop-color="#feff8e"/><stop offset="1" stop-color="#feff8e" stop-opacity="0"/></linearGradient><linearGradient x1="247.78569" y1="172.22164" x2="271.63644" y2="148.3709" gradientUnits="userSpaceOnUse" id="color-5"><stop offset="0" stop-color="#feff8e"/><stop offset="1" stop-color="#feff8e" stop-opacity="0"/></linearGradient><linearGradient x1="232.21431" y1="172.21314" x2="208.36357" y2="148.3624" gradientUnits="userSpaceOnUse" id="color-6"><stop offset="0" stop-color="#feff8e"/><stop offset="1" stop-color="#feff8e" stop-opacity="0"/></linearGradient><linearGradient x1="247.91795" y1="184.64481" x2="271.7687" y2="208.49555" gradientUnits="userSpaceOnUse" id="color-7"><stop offset="0" stop-color="#feff8e"/><stop offset="1" stop-color="#feff8e" stop-opacity="0"/></linearGradient><linearGradient x1="232.08205" y1="184.63631" x2="208.23131" y2="208.48705" gradientUnits="userSpaceOnUse" id="color-8"><stop offset="0" stop-color="#feff8e"/><stop offset="1" stop-color="#feff8e" stop-opacity="0"/></linearGradient></defs><g transform="translate(-195.37463,-138.2482)"><g data-paper-data="{&quot;isPaintingLayer&quot;:true}" fill-rule="nonzero" stroke-miterlimit="10" stroke-dasharray="" stroke-dashoffset="0" style="mix-blend-mode: normal"><g stroke="none" stroke-linecap="butt" stroke-linejoin="miter"><path d="M284.62537,185.6808l-33.4232,-5.43479l0.6137,-4.44943l32.8095,-8.28831z" fill="url(#color-1)" stroke-width="NaN"/><path d="M247.75308,138.2482l-6.63672,33.4232l-4.44943,-0.6137l-8.28831,-32.8095z" fill="url(#color-2)" stroke-width="NaN"/><path d="M228.37862,221.7518l8.28831,-32.8095l4.44943,-0.6137l6.63672,33.4232z" data-paper-data="{&quot;index&quot;:null}" fill="url(#color-3)" stroke-width="NaN"/><path d="M195.37463,167.49976l32.8095,8.28831l0.61369,4.44943l-33.42319,5.43479z" data-paper-data="{&quot;index&quot;:null}" fill="url(#color-4)" stroke-width="NaN"/><path d="M278.1374,154.87186l-27.0428,20.65869l-2.62879,-1.70824l16.82166,-31.80037z" fill="url(#color-5)" stroke-width="NaN"/><path d="M214.71252,142.01344l16.82167,31.80037l-2.62879,1.70824l-27.0428,-20.65869z" data-paper-data="{&quot;index&quot;:null}" fill="url(#color-6)" stroke-width="NaN"/><path d="M265.41974,214.84451l-16.82166,-31.80037l2.62878,-1.70824l27.0428,20.65869z" data-paper-data="{&quot;index&quot;:null}" fill="url(#color-7)" stroke-width="NaN"/><path d="M201.73034,201.98609l27.0428,-20.65869l2.62879,1.70825l-16.82167,31.80037z" data-paper-data="{&quot;index&quot;:null}" fill="url(#color-8)" stroke-width="NaN"/></g><path d="M236.96445,173.34515c1.50265,-3.41682 4.74571,-5.79164 8.51371,-5.79164c5.19467,0 9.41065,4.50018 9.41065,10.04506c0,7.83003 -8.96448,15.01931 -14.17995,18.2362c-1.83024,1.12888 -4.32192,1.04786 -6.11001,0.27755c-0.22284,-0.096 -0.43476,-0.20271 -0.63312,-0.31911c-5.10221,-2.99438 -14.92559,-9.84383 -14.92559,-18.19464c0,-5.54488 4.21598,-10.04506 9.41065,-10.04506c3.76803,0 7.0111,2.37482 8.51366,5.79164z" fill="#ff3d3d" stroke="#aa0000" stroke-width="6" stroke-linecap="butt" stroke-linejoin="round"/><path d="M213.579,202.14068l-0.16361,-43.86968l53.08817,-0.41168l0.08106,44.04726z" fill="none" stroke="none" stroke-width="0" stroke-linecap="butt" stroke-linejoin="miter"/><path d="M213.579,202.14068l-0.16361,-43.86968l53.08817,-0.41168l0.08106,44.04726z" fill="none" stroke="none" stroke-width="0" stroke-linecap="butt" stroke-linejoin="miter"/><g fill="none" stroke-linecap="round" stroke-linejoin="miter"><path d="M258.96684,173.62983h-12.21339" data-paper-data="{&quot;index&quot;:null}" stroke="#218c00" stroke-width="10"/><path d="M252.89224,179.77141v-12.21339" data-paper-data="{&quot;index&quot;:null}" stroke="#218c00" stroke-width="10"/><path d="M258.96684,173.62983h-12.21339" stroke="#3aff00" stroke-width="4"/><path d="M252.93014,167.55802v12.21339" data-paper-data="{&quot;index&quot;:null}" stroke="#3aff00" stroke-width="4"/></g></g></g></svg>