<svg version="1.1" xmlns="http://www.w3.org/2000/svg" xmlns:xlink="http://www.w3.org/1999/xlink" width="5584.20262" height="1226.95689" viewBox="0,0,5584.20262,1226.95689"><defs><linearGradient x1="320" y1="-316.36133" x2="320" y2="1626.23666" gradientUnits="userSpaceOnUse" id="color-1"><stop offset="0" stop-color="#7545d2"/><stop offset="1" stop-color="#4b3b6d"/></linearGradient></defs><g transform="translate(2472.10131,389.9349)"><g fill="url(#color-1)" stroke="none" stroke-width="0" stroke-miterlimit="10"><path d="M-2459.59558,837.02197l-12.50573,-937.03581c0,0 230.46543,-263.32061 505.9028,-276.58271c200.71414,-9.66422 308.75841,-66.30207 600.84083,159.49516c44.21387,34.18 50.1737,242.91489 231.3107,254.0808c211.5055,13.0378 197.43396,-149.20173 532.22277,-147.1436c116.00483,0.71323 516.93217,87.05173 866.90654,242.22604c260.95041,115.70214 605.13956,-27.85446 1167.30605,167.27138c150.70566,52.30947 182.7694,403.03796 352.13134,364.13801c175.86153,-40.39302 243.05762,-141.95609 422.7944,-275.04409c93.23436,-69.0363 340.1845,-88.94275 527.81975,-18.71311c193.19411,72.31028 325.814,235.8703 325.814,235.8703l51.15344,231.43763z"/></g></g></svg>