<svg version="1.1" xmlns="http://www.w3.org/2000/svg" xmlns:xlink="http://www.w3.org/1999/xlink" width="1718.70924" height="513.56712" viewBox="0,0,1718.70924,513.56712"><defs><linearGradient x1="-345.65622" y1="116.22397" x2="-345.65622" y2="371.22397" gradientUnits="userSpaceOnUse" id="color-1"><stop offset="0" stop-color="#3c4852"/><stop offset="1" stop-color="#3b403c"/></linearGradient><linearGradient x1="449.65385" y1="116.13952" x2="449.65385" y2="629.70664" gradientUnits="userSpaceOnUse" id="color-2"><stop offset="0" stop-color="#3c4852"/><stop offset="1" stop-color="#5b6961"/></linearGradient></defs><g transform="translate(964.31244,-116.13952)"><g stroke-width="0" stroke-miterlimit="10"><path d="M-964.31244,371.22397v-255h1237.31244v255z" fill="url(#color-1)" stroke="#000000"/><path d="M271.41748,116.13952l482.97932,187.22974l-126.50658,326.33738l-482.97932,-187.22974z" fill="url(#color-2)" stroke="#000000"/><path d="M495.46763,267.00588l12.80262,-12.26484l28.78942,-5.71803l6.09108,82.82079l-45.03718,22.12184l-20.67454,-39.51621z" fill="#55665c" stroke="none"/><path d="M154.46363,185.48023l23.44727,-29.29478l22.57488,-13.52081l26.84963,8.64924l12.94284,48.47893l-42.78191,12.59664z" fill="#55665c" stroke="none"/><path d="M192.23635,315.92124l-0.45653,-32.87948l29.20958,-29.48014l33.03523,0.61006l11.31745,28.08669l12.60814,48.56705l-42.86778,12.30123z" fill="#55665c" stroke="none"/><path d="M311.17347,234.28735l-10.14091,-27.65609l-5.6535,-39.53706l27.85271,-12.38218l47.50323,16.16063l-13.28456,42.57332z" fill="#55665c" stroke="none"/><path d="M8.82178,219.80915l-45.23196,2.71137l22.53495,-79.92847l49.88264,-5.42635l5.94982,44.19917z" fill="#55665c" stroke="none"/><path d="M-107.6373,319.90497l-29.93845,-34.01427l32.31297,-36.24843l44.58765,4.90071l34.93845,36.01428l-31.20922,31.8583z" fill="#55665c" stroke="none"/><path d="M356.18775,317.61112l-42.41497,-15.94527l14.35174,-43.45696l38.782,-20.36458l47.76822,15.35972l-12.56694,42.79064z" fill="#55665c" stroke="none"/></g></g></svg>