<svg version="1.1" xmlns="http://www.w3.org/2000/svg" xmlns:xlink="http://www.w3.org/1999/xlink" width="70.64734" height="46.7872" viewBox="0,0,70.64734,46.7872"><defs><linearGradient x1="387.75406" y1="157.93396" x2="387.75406" y2="161.47659" gradientUnits="userSpaceOnUse" id="color-1"><stop offset="0" stop-color="#949494"/><stop offset="1" stop-color="#dddddd"/></linearGradient><linearGradient x1="348.56712" y1="157.3377" x2="348.56712" y2="160.88032" gradientUnits="userSpaceOnUse" id="color-2"><stop offset="0" stop-color="#949494"/><stop offset="1" stop-color="#dddddd"/></linearGradient></defs><g transform="translate(-322.82666,-156.3564)"><g stroke-miterlimit="10"><path d="M353.88812,180.67114c0,0 -0.39211,-1.1367 -0.22171,-2.894c0.2226,-2.29572 1.51872,-3.73513 1.51872,-3.73513" fill="none" stroke="#a19127" stroke-width="1.5" stroke-linecap="round"/><path d="M325.79695,168.92429c-1.31899,-0.68341 -2.22029,-2.06098 -2.22029,-3.64906c0,-2.26833 1.83885,-4.10718 4.10718,-4.10718c1.2212,0 2.31791,0.53297 3.07022,1.37899" fill="none" stroke="#9e9e9e" stroke-width="1.5" stroke-linecap="butt"/><path d="M329.05068,195.30042c0.35712,-1.95921 3.66772,-11.33305 2.5013,-17.22877c-0.56304,-2.84585 -6.03788,-4.88128 -6.03788,-4.88128c0,0 0.37879,-4.6382 2.72538,-7.94311c1.95884,-2.75881 5.74767,-3.05777 7.50406,-3.06443c3.86047,-0.01462 56.92789,0 56.92789,0l0.04904,10.47608l-14.26148,-0.02366l-1.94525,1.15002c0,0 -18.19292,-0.0302 -23.12949,-0.03837c-2.32467,-0.00385 -5.51259,1.9015 -6.06817,4.67309c-1.37465,6.85773 -3.80265,18.99016 -4.08085,20.5163c-0.30615,1.67952 -1.93967,3.45733 -4.00549,3.45733c-6.58031,0 -3.03699,0 -7.08862,0c-2.09657,0 -3.637,-4.09471 -3.09044,-7.09318z" fill="#000000" stroke="#000000" stroke-width="1.5" stroke-linecap="butt"/><path d="M364.98472,173.8979c0,0 0.30628,6.23368 -4.60248,8.79608c-4.29635,2.24271 -9.26657,0.04217 -11.17743,1.19814c-1.95189,1.18077 -3.45899,2.83172 -3.45899,2.83172" fill="none" stroke="#000000" stroke-width="1.5" stroke-linecap="round"/><path d="M335.03353,184.37001h7.27764" fill="none" stroke="#8a0000" stroke-width="1.5" stroke-linecap="round"/><path d="M334.52913,188.83747h6.77324" fill="none" stroke="#8a0000" stroke-width="1.5" stroke-linecap="round"/><path d="M340.4377,193.30493h-6.62913" fill="none" stroke="#8a0000" stroke-width="1.5" stroke-linecap="round"/><path d="M333.23213,197.48416h5.90857" fill="none" stroke="#8a0000" stroke-width="1.5" stroke-linecap="round"/><path d="M387.75406,158.56916v2.27224" fill="none" stroke="url(#color-1)" stroke-width="2.5" stroke-linecap="round"/><path d="M360.37129,160.61162h-23.60834v-3.00522" fill="none" stroke="url(#color-2)" stroke-width="2.5" stroke-linecap="round"/></g></g></svg>