<svg version="1.1" xmlns="http://www.w3.org/2000/svg" xmlns:xlink="http://www.w3.org/1999/xlink" width="3849.57442" height="1339.16623" viewBox="0,0,3849.57442,1339.16623"><defs><linearGradient x1="320" y1="-323.56487" x2="320" y2="1015.60136" gradientUnits="userSpaceOnUse" id="color-1"><stop offset="0" stop-color="#5c458c"/><stop offset="1" stop-color="#170f29"/></linearGradient></defs><g transform="translate(1604.78721,323.56487)"><g fill="url(#color-1)" stroke="none" stroke-width="0" stroke-miterlimit="10"><path d="M-1604.78721,1015.60136l35.26358,-652.88642c0,0 91.424,-112.75316 224.60597,-162.6016c129.34987,-48.41412 299.58956,-34.69123 363.86241,12.90023c123.90491,91.7467 170.22779,161.7611 291.46122,189.60678c116.75282,26.81641 138.85656,-214.96483 242.74832,-251.02534c387.53998,-134.51364 624.8132,-35.55022 804.70424,-115.31165c241.26137,-106.97231 517.64812,-166.49137 597.61822,-166.98305c230.79292,-1.41881 221.09244,110.42404 366.89771,101.43619c124.87017,-7.69743 128.97869,-151.59273 159.45835,-175.15535c201.35247,-155.65754 275.83481,-116.61318 414.20085,-109.95097c189.8779,9.14248 348.75355,190.66746 348.75355,190.66746l-8.62106,1139.30371z"/></g></g></svg>