<svg version="1.1" xmlns="http://www.w3.org/2000/svg" xmlns:xlink="http://www.w3.org/1999/xlink" width="40.32" height="38.21048" viewBox="0,0,40.32,38.21048"><g transform="translate(-299.84,-160.95301)"><g stroke="none" stroke-miterlimit="10"><path d="M302,174.7241c0,-6.0832 4.0359,-11.7241 9.5625,-11.7241c3.8351,0 6.6809,2.53088 8.4375,6.1211c1.7565,-3.58999 4.6022,-6.1211 8.4375,-6.1211c5.5272,0 9.5625,5.6419 9.5625,11.7241c0,13.0203 -18,22.2759 -18,22.2759c0,0 -18,-8.6955 -18,-22.2759z" fill="#ff6666" fill-rule="nonzero"/><path d="M304.70595,166.53968c-1.63517,2.08085 -2.62595,4.92386 -2.62595,7.89197c0,6.6537 4.44046,12.23891 9.12901,16.25859c2.32131,1.99024 4.64811,3.54827 6.39699,4.60936c0.87315,0.52976 1.59925,0.93374 2.10426,1.20411c0.10069,0.05387 0.19253,0.10237 0.27496,0.14549c0.08456,-0.04659 0.17898,-0.09923 0.2828,-0.15781c0.50624,-0.28549 1.23357,-0.71053 2.10829,-1.26381c1.75157,-1.10802 4.08206,-2.72272 6.40718,-4.75227c4.70546,-4.10704 9.13651,-9.69125 9.13651,-16.04366c0,-2.96766 -0.99064,-5.81067 -2.62573,-7.89163c-1.62971,-2.07413 -3.85526,-3.34701 -6.36922,-3.34701c-3.47514,0 -6.17053,2.2633 -7.91974,5.82602l-1.00531,2.0477l-1.00531,-2.0477c-1.74933,-3.56294 -4.44472,-5.82602 -7.91974,-5.82602c-2.51373,0 -4.73928,1.27266 -6.36899,3.34667zM320,197.91301c-0.48586,1.00912 -0.48664,1.00878 -0.48664,1.00878l-0.00504,-0.00246l-0.01277,-0.00627l-0.04581,-0.0224c-0.03942,-0.01949 -0.09632,-0.04782 -0.16957,-0.0849c-0.14661,-0.07426 -0.35862,-0.18357 -0.62675,-0.32704c-0.53614,-0.28694 -1.29763,-0.71086 -2.20942,-1.26403c-1.82112,-1.10499 -4.25432,-2.73314 -6.69301,-4.82384c-4.83146,-4.14221 -9.91099,-10.29762 -9.91099,-17.9592c0,-3.44434 1.14378,-6.78059 3.10466,-9.27595c1.96625,-2.50227 4.79817,-4.20269 8.13028,-4.20269c3.92403,0 6.90805,2.19897 8.92506,5.30186c2.0169,-3.10274 5.00091,-5.30186 8.92506,-5.30186c3.33245,0 6.16437,1.70072 8.13053,4.20302c1.96078,2.49558 3.10442,5.83184 3.10442,9.27562c0,7.3724 -5.08894,13.52893 -9.90349,17.73128c-2.43488,2.1252 -4.86438,3.80744 -6.68282,4.95768c-0.91034,0.5759 -1.67048,1.02032 -2.20539,1.32194c-0.26757,0.15086 -0.47902,0.26622 -0.62507,0.34451c-0.07291,0.0392 -0.12958,0.0691 -0.16878,0.0896l-0.04536,0.02363l-0.01266,0.0065l-0.0037,0.00202l-0.00123,0.00056c0,0 -0.00078,0.00045 -0.5115,-0.99635zM320,197.91301l0.5115,0.99635l-0.49594,0.25413l-0.50221,-0.2417z" fill="#000000" fill-rule="evenodd"/></g></g></svg>