<svg version="1.1" xmlns="http://www.w3.org/2000/svg" xmlns:xlink="http://www.w3.org/1999/xlink" width="727.71099" height="436.51878" viewBox="0,0,727.71099,436.51878"><g transform="translate(43.5,45.51878)"><g stroke-miterlimit="10"><path d="M-43.5,391v-422h727v422z" fill="#56c7ff" stroke="none" stroke-width="0" stroke-linecap="butt"/><path d="M-6.49287,294.09396l484.5533,-160.00663c0,0 -53.24764,200.13173 -187.05334,244.31633c-133.80569,44.18461 -297.49996,-84.30971 -297.49996,-84.30971z" fill="#0090ff" stroke="none" stroke-width="0" stroke-linecap="butt"/><text transform="translate(140.8598,343.97935) rotate(-18.27399) scale(0.60251,0.59827) skewX(0.30066)" font-size="40" xml:space="preserve" fill="#000000" stroke="none" stroke-width="1" stroke-linecap="butt" font-family="Sans Serif" font-weight="normal" text-anchor="start"><tspan x="0" dy="0">Last Round: Green Win</tspan></text><path d="M442.11579,124.49124l16.26511,-57.55933l58.06879,16.12241l-16.26511,57.55933z" fill="#43ec17" stroke="#000000" stroke-width="0" stroke-linecap="butt"/><g fill="none" stroke="#000000" stroke-width="2.5" stroke-linecap="round"><path d="M468.92894,97.79435l3.8786,-13.7257"/><path d="M495.14167,90.26957l-3.8786,13.7257"/></g><path d="M461.70899,112.26358c0,0 10.70557,-1.47449 15.2231,-0.22022c4.84051,1.34394 12.91794,8.03339 12.91794,8.03339" fill="none" stroke="#000000" stroke-width="2.5" stroke-linecap="round"/><path d="M155.1149,241.30818l-26.72175,-53.58574l54.06003,-26.48732l26.72175,53.58574z" fill="#ffa100" stroke="#000000" stroke-width="0" stroke-linecap="butt"/><path d="M150.67969,190.90794l6.37211,12.77814" fill="none" stroke="#000000" stroke-width="2.5" stroke-linecap="round"/><path d="M171.472,180.72051l6.37211,12.77814" fill="none" stroke="#000000" stroke-width="2.5" stroke-linecap="round"/><path d="M187.63866,206.39511c0,0 -5.48977,9.17282 -9.67826,11.22502c-4.51914,2.2142 -16.52006,1.61114 -16.52006,1.61114" fill="none" stroke="#000000" stroke-width="2.5" stroke-linecap="round"/><path d="M430.76283,167.00243l70.51955,24.71918c0,0 -10.01995,43.27539 -49.90736,29.54875c-39.88742,-13.72665 -20.61218,-54.26792 -20.61218,-54.26792z" fill="#0063d4" stroke="none" stroke-width="0" stroke-linecap="butt"/><text transform="translate(77.40718,95.61963) rotate(18.99012) scale(3.43927,3.43927)" font-size="40" xml:space="preserve" fill="#000000" stroke="none" stroke-width="1" stroke-linecap="butt" font-family="Sans Serif" font-weight="normal" text-anchor="start"><tspan x="0" dy="0">Boat Off!</tspan></text><text transform="translate(421.42989,315.42404) scale(0.5,0.5)" font-size="40" xml:space="preserve" fill="#ffffff" stroke="none" stroke-width="1" stroke-linecap="butt" font-family="Sans Serif" font-weight="normal" text-anchor="start"><tspan x="0" dy="0">By DanielDami</tspan></text></g></g></svg>